<svg xmlns="http://www.w3.org/2000/svg" viewBox="0 0 49.98 49.98"><defs><style>.cls-1{fill:#37b085;}.cls-2{fill:#fff;}</style></defs><rect class="cls-1" width="49.98" height="49.98" rx="1.49"/><path class="cls-2" d="M25,12.05a7.07,7.07,0,0,0-7.07,7.06,1.18,1.18,0,0,0,2.36,0A4.71,4.71,0,0,1,25,14.4a1.18,1.18,0,1,0,0-2.35ZM19.12,40a1.23,1.23,0,0,0,.19.65l1.81,2.71a1.17,1.17,0,0,0,1,.53h5.8a1.17,1.17,0,0,0,1-.53l1.81-2.71a1.23,1.23,0,0,0,.19-.65V36.77H19.11ZM25,6.16a12.95,12.95,0,0,0-9.75,21.47,20.94,20.94,0,0,1,3.86,6.79h3.53a3.57,3.57,0,0,0-.15-1,23.29,23.29,0,0,0-4.58-8.07,9.42,9.42,0,1,1,14.18,0,23.26,23.26,0,0,0-4.57,8.05,3.43,3.43,0,0,0-.16,1h3.53a20.94,20.94,0,0,1,3.86-6.79A12.95,12.95,0,0,0,25,6.16Z" transform="translate(0.04 -0.02)"/></svg>
