<?xml version="1.0" encoding="utf-8"?>
<!-- Generator: Adobe Illustrator 25.0.0, SVG Export Plug-In . SVG Version: 6.00 Build 0)  -->
<svg version="1.1" id="Ebene_1" xmlns="http://www.w3.org/2000/svg" xmlns:xlink="http://www.w3.org/1999/xlink" x="0px" y="0px"
	 viewBox="0 0 16 16" style="enable-background:new 0 0 16 16;" xml:space="preserve">
<style type="text/css">
	.st0{fill:#EFEFEF;}
	.st1{opacity:0.2;enable-background:new    ;}
	.st2{fill:#999999;}
	.st3{fill:#666666;}
	.st4{fill:#FFFFFF;}
</style>
<path class="st0" d="M2,0v16h12V4l-4-4H2z"/>
<path class="st1" d="M13,5v5L9,5H13z"/>
<path class="st2" d="M2,0v16h12V4l0,0l0,0l-4-4l0,0l0,0H2z M3,1h6v4h4v10H3V1z M10,1.4L12.6,4H10V1.4z"/>
<path class="st3" d="M5,5h11v11H5V5z"/>
<g id="Ebene_2_1_">
</g>
<path class="st4" d="M6,6h9v9H6V6z"/>
<path d="M10.5,8.1c-1.4,0-2.6,0.8-3.5,2.4c0.9,1.6,2.1,2.4,3.5,2.4s2.6-0.8,3.5-2.4C13.1,8.9,11.9,8.1,10.5,8.1z M10.5,11.6
	c-0.6,0-1.1-0.5-1.1-1.1s0.5-1.1,1.1-1.1s1.1,0.5,1.1,1.1S11.1,11.6,10.5,11.6z"/>
</svg>
