<?xml version="1.0" encoding="utf-8"?>
<svg version="1.1" xmlns="http://www.w3.org/2000/svg" xmlns:xlink="http://www.w3.org/1999/xlink" x="0px" y="0px"
	 viewBox="758.3 -758.3 283.5 283.5" enable-background="new 758.3 -758.3 283.5 283.5" xml:space="preserve">
<rect x="776.5" y="-740" fill="#FFFFFF" width="247" height="247"/>
<path fill="#999999" d="M776-740.5v248h248v-248H776L776-740.5z M793.7-722.8h212.6v212.6H793.7V-722.8z"/>
<path fill="#FFFFFF" d="M942.3-583.9h-60.4L897-599l15.1-15.1l15.1,15.1L942.3-583.9z"/>
<g>
	<path fill="#5599FF" d="M846.1-698.6h107.8v107.8H846.1V-698.6z"/>
	<path fill="#FFFFFF" d="M918-608.8h-53.9l13.5-18l13.5-18l13.5,18L918-608.8z"/>
	<ellipse fill="#FFFFFF" cx="926.9" cy="-653.7" rx="9" ry="9"/>
</g>
<polygon fill="#FFFFFF" stroke="#000000" stroke-width="9" stroke-miterlimit="500" points="922.8,-560.1 905.3,-544.4
	905.3,-615.2 954.7,-565.5 936.8,-564.2 947.7,-542.8 935.8,-534.9 "/>
</svg>
