<svg xmlns="http://www.w3.org/2000/svg" xmlns:xlink="http://www.w3.org/1999/xlink" viewBox="0 0 1000 1000"><defs><pattern id="TYPO3demo_pattern_quadratisch" data-name="TYPO3demo_pattern_quadratisch" width="1000" height="1000" patternTransform="translate(0 -500)" patternUnits="userSpaceOnUse" viewBox="0 0 1000 1000"><rect width="1000" height="1000" style="fill:none"/><path d="M165.13,109.34a2,2,0,0,1-1.5,3.33,2,2,0,0,1-1.5-.67c-4.38-4.94-4.9-15.68-4.92-16.13a2,2,0,0,1,1.91-2.08,2,2,0,0,1,2.09,1.9C161.33,98.4,162.27,106.13,165.13,109.34Z" style="fill:#fff"/><path d="M172.89,54.24a2,2,0,0,1-.16,2.82c-.16.14-15.64,14.21-11.58,30.47A2,2,0,0,1,159.7,90a2.12,2.12,0,0,1-.49.06,2,2,0,0,1-1.94-1.51c-1.94-7.76-.32-16.19,4.67-24.38a47.91,47.91,0,0,1,8.13-10.05A2,2,0,0,1,172.89,54.24Z" style="fill:#fff"/><path d="M225.31,162.76a2,2,0,0,1-.85,2.69,27.46,27.46,0,0,1-12.82,3.34A24.7,24.7,0,0,1,195,162.23a2,2,0,0,1,2.86-2.8c.41.42,10.23,10.06,24.76,2.48A2,2,0,0,1,225.31,162.76Z" style="fill:#fff"/><path d="M856.53,224.86c-6.52-12.32-6.11-14.47-5.77-16.2.51-2.7.51-5.12-4.06-13.84A90.11,90.11,0,0,1,842.09,184c-5.08-13.7-9.48-25.52-49.41-44.57-5-2.37-9.79-4.4-14.43-6.17a53.62,53.62,0,0,0,13-6.87c9.05-6.49,20.42-19.1,23.3-42.37h0a.17.17,0,0,0,0-.07s0,0,0-.06a1.75,1.75,0,0,0,0-.51.22.22,0,0,0,0-.08,1.82,1.82,0,0,0-.18-.51l0-.07a2,2,0,0,0-.67-.71l-.16-.08,0,0h0a2,2,0,0,0-1.16-.16h0a2.72,2.72,0,0,0-.55.18l-.05,0a1.94,1.94,0,0,0-.44.31l0,0c-.23.23-5.7,5.53-16.86,4.2-6.47-.78-11.06,2-15.51,4.65-4.86,2.92-9.88,5.93-18.14,5.14-15.81-1.5-29.87,13.38-33,17l-6.57-.14c-16.76-.36-25.39-.53-31.67,3.6-10.3-3.06-19.35-3.56-25.91-.86-3.34-2.34-6.4-4.35-9.06-6a92.84,92.84,0,0,0-10.26-6.07l-.51-.28h0a1.19,1.19,0,0,0-.2-.08,1.15,1.15,0,0,0-.17-.06,1.28,1.28,0,0,0-.27,0l-.11,0h-.39l-.25,0-.12,0a1.33,1.33,0,0,0-.21.09l-.15.06-.16.12-.16.1-.13.14a.67.67,0,0,0-.14.15.78.78,0,0,0-.1.15c0,.06-.08.11-.12.18h0a1.22,1.22,0,0,0-.07.17,1.67,1.67,0,0,0-.08.2l0,.19a1.38,1.38,0,0,0,0,.2,1.34,1.34,0,0,0,0,.2,1.28,1.28,0,0,0,0,.19.65.65,0,0,0,0,.19,1.16,1.16,0,0,0,0,.18,1.42,1.42,0,0,0,.08.18.87.87,0,0,0,.07.17c0,.06.08.11.11.17l.11.15s.1.09.14.14l.14.14a1,1,0,0,0,.17.1l.17.11.07,0,.07,0c.78.41,4.7,2.53,10.57,6.28,10.21,7.09,17.08,15.56,20.5,25.29-5.71,1.09-10.49,5.71-12.48,12.23-2.31,7.59-1.59,14.9-1,21.35.46,4.75.86,8.86-.07,11.94-2.43,8-3.12,19.46-3.14,19.94a.33.33,0,0,0,0,.1,1.62,1.62,0,0,0,0,.31l0,.16a2,2,0,0,0,.08.26l.06.15.15.25a1.25,1.25,0,0,0,.08.12,2.23,2.23,0,0,0,.26.27l0,0a0,0,0,0,1,0,0l.07,0,.21.14.2.09.11,0,.25.06.08,0,.33,0h0a2.52,2.52,0,0,0,.47-.06h0c1-.26,24.36-6.66,27.63-23.35a58.33,58.33,0,0,1,3.69-11.74c2.56-6.28,4.41-10.82-.16-21.51-2.75-6.44-7.46-10.44-12.88-11.08A48,48,0,0,0,671.77,127a227.14,227.14,0,0,1,29.8,28c-2.8,6.69-14,37.54.43,71.11,18.07,42,7.63,119.11,7.52,119.89v.09a1.71,1.71,0,0,0,0,.32c0,.05,0,.1,0,.15s0,.2.07.3l0,.13a2.06,2.06,0,0,0,.17.33l0,.06a1.58,1.58,0,0,0,.29.34l0,0a1,1,0,0,0,.16.12.87.87,0,0,0,.11.09h0a2.11,2.11,0,0,0,.46.21l.12,0a2,2,0,0,0,.49.07,2,2,0,0,0,.43,0c.8-.18,19.51-4.36,25.11-11.41,1.61-2,4.28-2.67,7.67-3.49,5.82-1.41,13.79-3.34,21.41-13.7a110.77,110.77,0,0,1,7.42-8.69c9.57-10.53,21.89-24.07,22.92-49.31,5.22,1.59,16.46,4.14,21.9-1.4,2.19-2.23,9.83-2.8,19-1.44,9,1.34,17.56,4.21,20.88,7a2,2,0,0,0,1.28.47l.36,0a2,2,0,0,0,1.38-1C861.61,264.63,869.74,249.82,856.53,224.86ZM679.59,152.62a1.68,1.68,0,0,0,0-.55,50.24,50.24,0,0,0-1.07-8.95c0-.1,0-.2-.07-.3,3.29,1,6.12,3.92,8,8.32,3.91,9.16,2.57,12.45.14,18.43a62.48,62.48,0,0,0-3.92,12.48c-1.86,9.5-12.15,15.31-18.86,18.15a112.29,112.29,0,0,0,8-14.13C677.19,174.41,679.84,163,679.59,152.62Zm-5-8.68a45.87,45.87,0,0,1,.86,6,5.45,5.45,0,0,0-1.85.48c-5.12,2.29-7.74,12.56-8,13.73a2,2,0,0,0,1.47,2.41,2,2,0,0,0,.48.06,2,2,0,0,0,1.94-1.53c1-3.93,3.39-10,5.78-11a1.41,1.41,0,0,1,.38-.12c0,17.64-8.92,34.29-14.46,42.91a74.21,74.21,0,0,1,2.25-11.52c1.16-3.84.7-8.53.22-13.48-.6-6.08-1.27-13,.81-19.81,1.59-5.23,5.37-8.87,9.79-9.54C674.34,143,674.47,143.46,674.58,143.94Zm85.73-43.68c9.58.91,15.42-2.6,20.58-5.7,4.22-2.54,7.87-4.72,13-4.11a29.6,29.6,0,0,0,11.29-.69,75.49,75.49,0,0,1-25,17.72c5.37-5.09,6.7-8.94,6.78-9.17A2,2,0,0,0,783.18,97c0,.07-2.56,7-15,14.38a71.05,71.05,0,0,1-14.85,1.84l-2.58,0c1.4-3.42,6.19-5.16,6.24-5.17a2,2,0,1,0-1.31-3.79c-.35.13-7.82,2.8-9.12,9-4.89,0-9.36,0-13.45,0C738.18,108.28,749,99.17,760.31,100.26Zm-13.72,17.09c1,4.88,5.55,6.6,8.06,6.8h.17a2,2,0,0,0,.17-4,5.13,5.13,0,0,1-4.25-2.87l2.67,0a75.16,75.16,0,0,0,8.4-.63c4.43,4,10.68,4.91,15.29,4.91a35.57,35.57,0,0,0,6.1-.51,2,2,0,0,0-.76-3.93c-.11,0-8.59,1.59-14.9-1.42.49-.1,1-.22,1.46-.34a2,2,0,0,0,.57-.13c19.86-4.75,33.09-16.63,39.72-24.07-7.48,32.76-33.51,39-37.46,39.81a152.15,152.15,0,0,0-34.22-7.49,27.29,27.29,0,0,1-5.42-6.15C736.54,117.37,741.32,117.39,746.59,117.35ZM721,117.1l6.39.13a43.1,43.1,0,0,0,4.08,5.8c-12.43-.57-20.5,1-23,1.52a120.85,120.85,0,0,0-13.67-6.06C700.15,116.66,708,116.82,721,117.1Zm3.44,34.74a30.6,30.6,0,0,0-12.57-1.46,39.52,39.52,0,0,1-2.28-20.75,164,164,0,0,1,15.85,9.84C723.73,143.49,724,148.49,724.46,151.84Zm-39.8-19.41c-6-5.26-11.82-9.84-17.11-13.71,8.89-2.11,22.87,1.21,38.35,9-.8,3.55-2,12.34,2,23.38a28.71,28.71,0,0,0-3.41,1.1A218.88,218.88,0,0,0,684.66,132.43Zm21,92.11c-12.6-29.26-4.46-57.06-1.14-66.07a182.46,182.46,0,0,1,11.31,14.9c6.86,18.1-2.66,33.67-2.79,33.88a2,2,0,0,0,.63,2.76,2,2,0,0,0,2.75-.62,45,45,0,0,0,5.79-25.88A146.9,146.9,0,0,1,732.85,206a49.1,49.1,0,0,1-9.1,24.65,2,2,0,0,0,.28,2.81,2,2,0,0,0,1.27.45,2,2,0,0,0,1.54-.73,50.27,50.27,0,0,0,8.74-19c.35,1.16.68,2.33,1,3.51a129.31,129.31,0,0,1,3.93,22.36c-1.92,14.25-15,24.3-15.08,24.4a2,2,0,0,0,2.41,3.19A50.32,50.32,0,0,0,741,251.62c-.07,27.78-8.92,56.57-26.48,86,.82-8.1,1.87-21,2.1-35.67C717.14,268.68,713.46,242.63,705.68,224.54Zm64.9,83.72a116.7,116.7,0,0,0-7.68,9c-6.76,9.18-13.62,10.85-19.13,12.18-3.81.93-7.4,1.8-9.86,4.89-3,3.76-11.79,6.95-18,8.75a207.39,207.39,0,0,0,22.56-49c2.46,3.47,2.44,8.89-.09,16.19a68.72,68.72,0,0,1-6.46,13.24,2,2,0,0,0,3.35,2.19c.69-1.06,16.53-25.59,4.48-36.11a142.77,142.77,0,0,0,4.79-49.7v0c0-.54-.11-1.08-.16-1.62,16.95,17,16.1,41.74,16.09,42a2,2,0,0,0,1.91,2.09h.09a2,2,0,0,0,2-1.91c.06-1.23,1.08-30.06-20.8-48.23a133.71,133.71,0,0,0-3.2-15.58c-1.05-3.92-2.27-7.73-3.63-11.45a2.32,2.32,0,0,0-.13-.37,147.94,147.94,0,0,0-7.75-17.44c30.13,17.73,47,60.89,47.13,61.35a2,2,0,0,0,1.86,1.28,2,2,0,0,0,.72-.13,2,2,0,0,0,1.15-2.58,168.36,168.36,0,0,0-14-27.15c-8.37-13.22-22.13-30.66-40.32-39.11q-2.88-5-6-9.56v0a2.11,2.11,0,0,0-.5-.73,190.71,190.71,0,0,0-11.67-15.33c18.83-6.15,37.58,13,43.73,25.25,2.6,5.19,6.92,7.84,11.49,10.63,9.38,5.74,21,12.88,27.81,46.12C798.45,277.63,783,294.62,770.58,308.26Zm-11-123.62a16,16,0,0,1-5-5.74,60.37,60.37,0,0,0-20.19-22.26,45.8,45.8,0,0,0-5.55-3.07c-.59-2.71-1.25-7.88,0-11.68q3.95,2.9,7.84,6.1a2.56,2.56,0,0,0,.37.3,179.53,179.53,0,0,1,22.48,22.2A30.56,30.56,0,0,0,759.59,184.64Zm99,76.56c-5.34-3.18-14.12-5.37-20.67-6.35-5.22-.77-17.84-2.07-22.44,2.59a7.32,7.32,0,0,1-3.91,1.9c-3.94.78-9.21-.19-13-1.25-.76-.21-1.46-.42-2.07-.63a109.13,109.13,0,0,0-2.32-20.82c-.22-1.06-.44-2.11-.67-3.12-.46-2-.93-4-1.43-5.82s-1-3.6-1.54-5.26c-4-12.5-8.9-20.13-13.85-25.29-1-1-2-2-3-2.81-.66-.57-1.31-1.1-2-1.6a72.09,72.09,0,0,0-6.56-4.42,20.49,20.49,0,0,1-.87-1.93q-.2-.48-.36-1a24.19,24.19,0,0,1-1.16-5.57q0-.44-.06-.87c0-.57,0-1.12,0-1.65a25.22,25.22,0,0,1,.17-2.91,231.21,231.21,0,0,0,26.27,25.08c0,.3,0,.6,0,.91a17.17,17.17,0,0,0,0,1.89c0,.32.06.65.1,1a32,32,0,0,0,1,5l.3,1a67.39,67.39,0,0,0,4.78,11.09c.44.83.84,1.54,1.15,2.08l.4.68c.16.28.27.45.31.51a2,2,0,0,0,1.7.94,1.93,1.93,0,0,0,1-.3,2,2,0,0,0,.65-2.75,65.5,65.5,0,0,1-3.6-6.79,42.78,42.78,0,0,1-3.8-11.88l0,0,0,0a2,2,0,0,0,.51.41,381,381,0,0,0,52.71,34.84,2.08,2.08,0,0,0,.93.22,2,2,0,0,0,.93-3.77c-.24-.12-10.78-5.68-25.17-15.09-2.06-1.35-4.2-2.77-6.39-4.26q-2.21-1.5-4.47-3.1c-4.53-3.18-9.26-6.65-14-10.37,5.77-2,15.2,2.47,18.77,4.68a2,2,0,0,0,1,.3,2,2,0,0,0,1.7-1,2,2,0,0,0-.65-2.76,46.28,46.28,0,0,0-12-5,25.37,25.37,0,0,0-4-.66,18.72,18.72,0,0,0-2-.07c-.32,0-.65,0-1,0a12,12,0,0,0-5.45,1.7c-5.06-4.07-10.13-8.4-15-13s-9.61-9.34-14-14.3c35.29-1.31,63.14,23.79,63.43,24.06a2,2,0,0,0,1.35.52,2,2,0,0,0,1.48-.65,2,2,0,0,0-.13-2.82,79.4,79.4,0,0,0-7.37-5.83c-1.47-1-3.15-2.19-5-3.37l-1.92-1.19c-9.91-6-24.3-12.72-41.15-14.38a78.21,78.21,0,0,0-14-.15,182.57,182.57,0,0,0-20-20,60.66,60.66,0,0,1,16.65.72c1.62.27,3.23.58,4.84.94s3.19.75,4.76,1.17c3.14.84,6.19,1.8,9.07,2.8l2.13.76a169.84,169.84,0,0,1,17.2,7.38l.81.41,1.12.58.43.23a2.1,2.1,0,0,0,1,.24,2,2,0,0,0,1-3.75,159.81,159.81,0,0,0-22-9.55c-1.77-.61-3.51-1.19-5.21-1.71A116.18,116.18,0,0,0,762.14,145c-.77-.15-1.54-.29-2.3-.41a6.94,6.94,0,0,1,.71-.38c3.42-1.62,8.34-1.2,9.06-1.12,0,0,.08,0,.08,0a2,2,0,0,0,.53-4,26.31,26.31,0,0,0-6.31,0c-3.26.43-7,1.64-9.12,4.74a54.51,54.51,0,0,0-16.23.54c-1.49-1.22-3-2.41-4.51-3.57s-3-2.29-4.56-3.39a1.89,1.89,0,0,0-.37-.32,1.83,1.83,0,0,0-.28-.14c-4.86-3.46-9.76-6.6-14.61-9.38,11.38-1.41,39.68-2.29,76.73,15.38,38.47,18.34,42.6,29.46,47.38,42.34a92,92,0,0,0,4.82,11.3c4.26,8.13,4,9.7,3.67,11.22-.59,3.09-.5,6.24,6.17,18.83C862.38,244.46,860.13,256.59,858.62,261.2Z" style="fill:#2f292c"/><path d="M805.15,89.76a75.49,75.49,0,0,1-25,17.72c5.37-5.09,6.7-8.94,6.78-9.17A2,2,0,0,0,783.18,97c0,.07-2.56,7-15,14.38a71.05,71.05,0,0,1-14.85,1.84l-2.58,0c1.4-3.42,6.19-5.16,6.24-5.17a2,2,0,1,0-1.31-3.79c-.35.13-7.82,2.8-9.12,9-4.89,0-9.36,0-13.45,0,5.06-5,15.89-14.15,27.19-13.06,9.58.91,15.42-2.6,20.58-5.7,4.22-2.54,7.87-4.72,13-4.11A29.6,29.6,0,0,0,805.15,89.76Z" style="fill:#b11030"/><path d="M809.29,91.14c-7.48,32.76-33.51,39-37.46,39.81a152.15,152.15,0,0,0-34.22-7.49,27.29,27.29,0,0,1-5.42-6.15c4.35.06,9.13.08,14.4,0,1,4.88,5.55,6.6,8.06,6.8h.17a2,2,0,0,0,.17-4,5.13,5.13,0,0,1-4.25-2.87l2.67,0a75.16,75.16,0,0,0,8.4-.63c4.43,4,10.68,4.91,15.29,4.91a35.57,35.57,0,0,0,6.1-.51,2,2,0,0,0-.76-3.93c-.11,0-8.59,1.59-14.9-1.42.49-.1,1-.22,1.46-.34a2,2,0,0,0,.57-.13C789.43,110.46,802.66,98.58,809.29,91.14Z" style="fill:#b11030"/><path d="M858.62,261.2c-5.34-3.18-14.12-5.37-20.67-6.35-5.22-.77-17.84-2.07-22.44,2.59a7.32,7.32,0,0,1-3.91,1.9c-3.94.78-9.21-.19-13-1.25-.76-.21-1.46-.42-2.07-.63a109.13,109.13,0,0,0-2.32-20.82c-.22-1.06-.44-2.11-.67-3.12-.46-2-.93-4-1.43-5.82s-1-3.6-1.54-5.26c-4-12.5-8.9-20.13-13.85-25.29-1-1-2-2-3-2.81-.66-.57-1.31-1.1-2-1.6a72.09,72.09,0,0,0-6.56-4.42,20.49,20.49,0,0,1-.87-1.93q-.2-.48-.36-1a24.19,24.19,0,0,1-1.16-5.57q0-.44-.06-.87c0-.57,0-1.12,0-1.65a25.22,25.22,0,0,1,.17-2.91,231.21,231.21,0,0,0,26.27,25.08c0,.3,0,.6,0,.91a17.17,17.17,0,0,0,0,1.89c0,.32.06.65.1,1a32,32,0,0,0,1,5l.3,1a67.39,67.39,0,0,0,4.78,11.09c.44.83.84,1.54,1.15,2.08l.4.68c.16.28.27.45.31.51a2,2,0,0,0,1.7.94,1.93,1.93,0,0,0,1-.3,2,2,0,0,0,.65-2.75,65.5,65.5,0,0,1-3.6-6.79,42.78,42.78,0,0,1-3.8-11.88l0,0,0,0a2,2,0,0,0,.51.41,381,381,0,0,0,52.71,34.84,2.08,2.08,0,0,0,.93.22,2,2,0,0,0,.93-3.77c-.24-.12-10.78-5.68-25.17-15.09-2.06-1.35-4.2-2.77-6.39-4.26q-2.21-1.5-4.47-3.1c-4.53-3.18-9.26-6.65-14-10.37,5.77-2,15.2,2.47,18.77,4.68a2,2,0,0,0,1,.3,2,2,0,0,0,1.7-1,2,2,0,0,0-.65-2.76,46.28,46.28,0,0,0-12-5,25.37,25.37,0,0,0-4-.66,18.72,18.72,0,0,0-2-.07c-.32,0-.65,0-1,0a12,12,0,0,0-5.45,1.7c-5.06-4.07-10.13-8.4-15-13s-9.61-9.34-14-14.3c35.29-1.31,63.14,23.79,63.43,24.06a2,2,0,0,0,1.35.52,2,2,0,0,0,1.48-.65,2,2,0,0,0-.13-2.82,79.4,79.4,0,0,0-7.37-5.83c-1.47-1-3.15-2.19-5-3.37l-1.92-1.19c-9.91-6-24.3-12.72-41.15-14.38a78.21,78.21,0,0,0-14-.15,182.57,182.57,0,0,0-20-20,60.66,60.66,0,0,1,16.65.72c1.62.27,3.23.58,4.84.94s3.19.75,4.76,1.17c3.14.84,6.19,1.8,9.07,2.8l2.13.76a169.84,169.84,0,0,1,17.2,7.38l.81.41,1.12.58.43.23a2.1,2.1,0,0,0,1,.24,2,2,0,0,0,1-3.75,159.81,159.81,0,0,0-22-9.55c-1.77-.61-3.51-1.19-5.21-1.71A116.18,116.18,0,0,0,762.14,145c-.77-.15-1.54-.29-2.3-.41a6.94,6.94,0,0,1,.71-.38c3.42-1.62,8.34-1.2,9.06-1.12,0,0,.08,0,.08,0a2,2,0,0,0,.53-4,26.31,26.31,0,0,0-6.31,0c-3.26.43-7,1.64-9.12,4.74a54.51,54.51,0,0,0-16.23.54c-1.49-1.22-3-2.41-4.51-3.57s-3-2.29-4.56-3.39a1.89,1.89,0,0,0-.37-.32,1.83,1.83,0,0,0-.28-.14c-4.86-3.46-9.76-6.6-14.61-9.38,11.38-1.41,39.68-2.29,76.73,15.38,38.47,18.34,42.6,29.46,47.38,42.34a92,92,0,0,0,4.82,11.3c4.26,8.13,4,9.7,3.67,11.22-.59,3.09-.5,6.24,6.17,18.83C862.38,244.46,860.13,256.59,858.62,261.2Z" style="fill:#fff"/><path d="M759.59,184.64a16,16,0,0,1-5-5.74,60.37,60.37,0,0,0-20.19-22.26,45.8,45.8,0,0,0-5.55-3.07c-.59-2.71-1.25-7.88,0-11.68q3.95,2.9,7.84,6.1a2.56,2.56,0,0,0,.37.3,179.53,179.53,0,0,1,22.48,22.2A30.56,30.56,0,0,0,759.59,184.64Z" style="fill:#fff"/><path d="M724.46,151.84a30.6,30.6,0,0,0-12.57-1.46,39.52,39.52,0,0,1-2.28-20.75,164,164,0,0,1,15.85,9.84C723.73,143.49,724,148.49,724.46,151.84Z" style="fill:#fff"/><path d="M663.4,185.34c1.16-3.84.7-8.53.22-13.48-.6-6.08-1.27-13,.81-19.81,1.59-5.23,5.37-8.87,9.79-9.54.12.48.25,1,.36,1.43a45.87,45.87,0,0,1,.86,6,5.45,5.45,0,0,0-1.85.48c-5.12,2.29-7.74,12.56-8,13.73a2,2,0,0,0,1.47,2.41,2,2,0,0,0,.48.06,2,2,0,0,0,1.94-1.53c1-3.93,3.39-10,5.78-11a1.41,1.41,0,0,1,.38-.12c0,17.64-8.92,34.29-14.46,42.91A74.21,74.21,0,0,1,663.4,185.34Z" style="fill:#b11030"/><path d="M686.56,169.57a62.48,62.48,0,0,0-3.92,12.48c-1.86,9.5-12.15,15.31-18.86,18.15a112.29,112.29,0,0,0,8-14.13c5.46-11.66,8.11-23,7.86-33.45a1.68,1.68,0,0,0,0-.55,50.24,50.24,0,0,0-1.07-8.95c0-.1,0-.2-.07-.3,3.29,1,6.12,3.92,8,8.32C690.33,160.3,689,163.59,686.56,169.57Z" style="fill:#b11030"/><path d="M716.61,302c.53-33.29-3.15-59.34-10.93-77.43-12.6-29.26-4.46-57.06-1.14-66.07a182.46,182.46,0,0,1,11.31,14.9c6.86,18.1-2.66,33.67-2.79,33.88a2,2,0,0,0,.63,2.76,2,2,0,0,0,2.75-.62,45,45,0,0,0,5.79-25.88A146.9,146.9,0,0,1,732.85,206a49.1,49.1,0,0,1-9.1,24.65,2,2,0,0,0,.28,2.81,2,2,0,0,0,1.27.45,2,2,0,0,0,1.54-.73,50.27,50.27,0,0,0,8.74-19c.35,1.16.68,2.33,1,3.51a129.31,129.31,0,0,1,3.93,22.36c-1.92,14.25-15,24.3-15.08,24.4a2,2,0,0,0,2.41,3.19A50.32,50.32,0,0,0,741,251.62c-.07,27.78-8.92,56.57-26.48,86C715.33,329.54,716.38,316.64,716.61,302Z" style="fill:#fff"/><path d="M770.58,308.26a116.7,116.7,0,0,0-7.68,9c-6.76,9.18-13.62,10.85-19.13,12.18-3.81.93-7.4,1.8-9.86,4.89-3,3.76-11.79,6.95-18,8.75a207.39,207.39,0,0,0,22.56-49c2.46,3.47,2.44,8.89-.09,16.19a68.72,68.72,0,0,1-6.46,13.24,2,2,0,0,0,3.35,2.19c.69-1.06,16.53-25.59,4.48-36.11a142.77,142.77,0,0,0,4.79-49.7v0c0-.54-.11-1.08-.16-1.62,16.95,17,16.1,41.74,16.09,42a2,2,0,0,0,1.91,2.09h.09a2,2,0,0,0,2-1.91c.06-1.23,1.08-30.06-20.8-48.23a133.71,133.71,0,0,0-3.2-15.58c-1.05-3.92-2.27-7.73-3.63-11.45a2.32,2.32,0,0,0-.13-.37,147.94,147.94,0,0,0-7.75-17.44c30.13,17.73,47,60.89,47.13,61.35a2,2,0,0,0,1.86,1.28,2,2,0,0,0,.72-.13,2,2,0,0,0,1.15-2.58,168.36,168.36,0,0,0-14-27.15c-8.37-13.22-22.13-30.66-40.32-39.11q-2.88-5-6-9.56v0a2.11,2.11,0,0,0-.5-.73,190.71,190.71,0,0,0-11.67-15.33c18.83-6.15,37.58,13,43.73,25.25,2.6,5.19,6.92,7.84,11.49,10.63,9.38,5.74,21,12.88,27.81,46.12C798.45,277.63,783,294.62,770.58,308.26Z" style="fill:#fff"/><path d="M492.79,492.55a48.73,48.73,0,0,0-8.07-12.5c-1.35-21.06-8.08-35.39-20-42.62-8.05-4.87-18.58-6.39-30.46-4.38a69.16,69.16,0,0,0-15.51,4.48,47.08,47.08,0,0,0-24.44,2.94c-.62-.78-1.25-1.58-1.92-2.37-12-14.46-26.21-23.22-41-25.33a2,2,0,0,0-1.61.48l-9,8a2,2,0,0,0,.88,3.45c.31.07,23.92,5.65,38.75,20.87-7.72,1-24.48,4.42-36,17-8.42,9.2-12.23,21.43-11.34,36.33,2.85,47.41,11.5,53.78,28.74,66.47,1.3,1,2.65,1.95,4.06,3,6.64,5,11.76,6.53,16.41,6.53A38.56,38.56,0,0,0,392.71,573c6.47-1.82,13.8-3.86,25.93-1.27,13.65,2.93,29.25-3.77,39.75-17.07,12.3-15.58,14.83-36.23,7.12-56.11.87.32,1.48.5,1.71.56C483.79,504.84,488,531.53,488,531.8a2,2,0,0,0,1.47,1.64,2.22,2.22,0,0,0,.51.06,2,2,0,0,0,1.57-.76C498.82,523.5,499.33,507,492.79,492.55ZM444.22,436.2a35.21,35.21,0,0,1,18.42,4.66c9.9,6,15.85,17.73,17.7,34.92a44.52,44.52,0,0,0-26.74-10.39c-1.07-.05-2.11-.14-3.14-.24a67.31,67.31,0,0,0-3.94-7.58c14.17-1.42,20,6.13,20.26,6.47a2,2,0,0,0,3.23-2.36c-.32-.44-7.91-10.52-26-7.82a46.36,46.36,0,0,0-5-5.9c8.22-2.54,19.26,1.75,19.38,1.8a2.11,2.11,0,0,0,.74.14,2,2,0,0,0,.74-3.86c-.61-.24-14.36-5.6-24.24-1.06a36.7,36.7,0,0,0-9.95-5.61l-.18-.06A63.47,63.47,0,0,1,444.22,436.2Zm-19.89,6.93A33,33,0,0,1,433,448a18.32,18.32,0,0,0-2,8.3,2,2,0,0,0,2,2h0a2,2,0,0,0,2-2.05,15,15,0,0,1,1.11-5.49,49.67,49.67,0,0,1,9.68,13.84,45.85,45.85,0,0,1-8.8-2.31,2.05,2.05,0,0,0-.41-.16,25.54,25.54,0,0,1-10.69-7.48,20.74,20.74,0,0,1-4.51-12.4A30.86,30.86,0,0,1,424.33,443.13Zm-7-1.76a25.26,25.26,0,0,0,.2,3.45,46.85,46.85,0,0,0-16.71-2.29A42.38,42.38,0,0,1,417.35,441.37Zm-52.76-12.11a106.68,106.68,0,0,0-18.44-7.48l5.54-4.91c28.38,4.62,45.48,33.87,49.76,42.06a28,28,0,0,1-7.71.3,44.17,44.17,0,0,0-7.43-13,1.84,1.84,0,0,0-.48-.59C380.6,439.45,373.46,433.9,364.59,429.26Zm90.66,122.89c-9.56,12.11-23.6,18.25-35.77,15.64-13.1-2.8-21.27-.52-27.84,1.32-7.94,2.22-13.18,3.69-23.38-4l-4.08-3c-16.75-12.33-24.39-18-27.13-63.49-.82-13.78,2.64-25,10.3-33.39,12.25-13.39,31.7-15.62,36.27-16a40.66,40.66,0,0,1,5.55,9.22,52.44,52.44,0,0,1-8.37-2.61,2,2,0,1,0-1.48,3.71,46.82,46.82,0,0,0,17.37,3.78c13.35,0,18.75-8.09,19.05-8.55a2,2,0,0,0-3.36-2.17,15.53,15.53,0,0,1-7,5.14,104.45,104.45,0,0,0-6.55-11.07,42.92,42.92,0,0,1,19.75,2.68,24,24,0,0,0,4.13,7.63,29,29,0,0,0,11.78,8.5,40.94,40.94,0,0,0,13,16.85A32.26,32.26,0,0,0,460,495.88C469.26,515.66,467.49,536.65,455.25,552.15Zm35.64-26a71.68,71.68,0,0,0-3.42-10.27c-2.9-6.88-6.64-12.26-11-16a20.82,20.82,0,0,1,7.29,4,2,2,0,0,0,1.42.59,2,2,0,0,0,1.43-3.4c-.29-.29-7-6.94-21.23-7a30.07,30.07,0,0,1-10.95-8.35,38.28,38.28,0,0,0,13.32,2.52,22.38,22.38,0,0,0,3.75-.26,2,2,0,0,0-.71-3.94c-.13,0-9.61,1.57-20.6-4.73a32.92,32.92,0,0,1-3.49-3,78.72,78.72,0,0,1,10.66,1.43,1.9,1.9,0,0,0,.4.05,2,2,0,0,0,.41-4c-1.11-.23-10.1-2-15-1.4a35.65,35.65,0,0,1-3.42-5.17,59.84,59.84,0,0,0,9.36,1.7h0c1.38.15,2.8.28,4.27.36a40.27,40.27,0,0,1,27.81,12.75,1.58,1.58,0,0,0,.22.23,45,45,0,0,1,7.73,11.83C494.19,505.33,494.74,517.69,490.89,526.14Z" style="fill:#2f292c"/><path d="M401.45,458.93a28,28,0,0,1-7.71.3,44.17,44.17,0,0,0-7.43-13,1.84,1.84,0,0,0-.48-.59c-5.23-6.24-12.37-11.79-21.24-16.43a106.68,106.68,0,0,0-18.44-7.48l5.54-4.91C380.07,421.49,397.17,450.74,401.45,458.93Z" style="fill:#fff"/><path d="M445.77,464.54a45.85,45.85,0,0,1-8.8-2.31,2.05,2.05,0,0,0-.41-.16,25.54,25.54,0,0,1-10.69-7.48,20.74,20.74,0,0,1-4.51-12.4,30.86,30.86,0,0,1,3,.94A33,33,0,0,1,433,448a18.32,18.32,0,0,0-2,8.3,2,2,0,0,0,2,2h0a2,2,0,0,0,2-2.05,15,15,0,0,1,1.11-5.49A49.67,49.67,0,0,1,445.77,464.54Z" style="fill:#fff"/><path d="M480.34,475.78a44.52,44.52,0,0,0-26.74-10.39c-1.07-.05-2.11-.14-3.14-.24a67.31,67.31,0,0,0-3.94-7.58c14.17-1.42,20,6.13,20.26,6.47a2,2,0,0,0,3.23-2.36c-.32-.44-7.91-10.52-26-7.82a46.36,46.36,0,0,0-5-5.9c8.22-2.54,19.26,1.75,19.38,1.8a2.11,2.11,0,0,0,.74.14,2,2,0,0,0,.74-3.86c-.61-.24-14.36-5.6-24.24-1.06a36.7,36.7,0,0,0-9.95-5.61l-.18-.06a63.47,63.47,0,0,1,18.72-3.11,35.21,35.21,0,0,1,18.42,4.66C472.54,446.86,478.49,458.59,480.34,475.78Z" style="fill:#fff"/><path d="M490.89,526.14a71.68,71.68,0,0,0-3.42-10.27c-2.9-6.88-6.64-12.26-11-16a20.82,20.82,0,0,1,7.29,4,2,2,0,0,0,1.42.59,2,2,0,0,0,1.43-3.4c-.29-.29-7-6.94-21.23-7a30.07,30.07,0,0,1-10.95-8.35,38.28,38.28,0,0,0,13.32,2.52,22.38,22.38,0,0,0,3.75-.26,2,2,0,0,0-.71-3.94c-.13,0-9.61,1.57-20.6-4.73a32.92,32.92,0,0,1-3.49-3,78.72,78.72,0,0,1,10.66,1.43,1.9,1.9,0,0,0,.4.05,2,2,0,0,0,.41-4c-1.11-.23-10.1-2-15-1.4a35.65,35.65,0,0,1-3.42-5.17,59.84,59.84,0,0,0,9.36,1.7h0c1.38.15,2.8.28,4.27.36a40.27,40.27,0,0,1,27.81,12.75,1.58,1.58,0,0,0,.22.23,45,45,0,0,1,7.73,11.83C494.19,505.33,494.74,517.69,490.89,526.14Z" style="fill:#fff"/><path d="M460,495.88a32.26,32.26,0,0,1-12.51-13.49,40.94,40.94,0,0,1-13-16.85,29,29,0,0,1-11.78-8.5,24,24,0,0,1-4.13-7.63,42.92,42.92,0,0,0-19.75-2.68,104.45,104.45,0,0,1,6.55,11.07,15.53,15.53,0,0,0,7-5.14,2,2,0,0,1,3.36,2.17c-.3.46-5.7,8.55-19.05,8.55a46.82,46.82,0,0,1-17.37-3.78,2,2,0,1,1,1.48-3.71,52.44,52.44,0,0,0,8.37,2.61,40.66,40.66,0,0,0-5.55-9.22c-4.57.34-24,2.57-36.27,16-7.66,8.38-11.12,19.61-10.3,33.39,2.74,45.54,10.38,51.16,27.13,63.49l4.08,3c10.2,7.65,15.44,6.18,23.38,4,6.57-1.84,14.74-4.12,27.84-1.32,12.17,2.61,26.21-3.53,35.77-15.64C467.49,536.65,469.26,515.66,460,495.88Zm-113,6a2,2,0,0,1-1.77,2.21h-.22a2,2,0,0,1-2-1.78,52.67,52.67,0,0,1,0-6.19,2,2,0,1,1,4,.22A46.1,46.1,0,0,0,347.07,501.91Zm16.83-35.43c-.58.22-14.18,5.53-15.65,23.55a2,2,0,0,1-2,1.84h-.17a2,2,0,0,1-1.83-2.15c1.69-20.65,17.58-26.73,18.25-27a2,2,0,0,1,1.39,3.75Zm77.65,74a7,7,0,0,0,.65-1.15,2,2,0,0,1,3.66,1.6,6.14,6.14,0,0,1-2.32,3,1.92,1.92,0,0,1-.89.22,2,2,0,0,1-1.1-3.68ZM426,560.33a13.59,13.59,0,0,1-5.41,1,15.78,15.78,0,0,1-5.41-1,2,2,0,0,1,1.38-3.76,10.81,10.81,0,0,0,7.74.07,2,2,0,0,1,1.7,3.62Zm25.9-13.45c-.34.55-8.42,13.54-19.29,14.69l-.22,0a2,2,0,0,1-.21-4c8.91-1,16.24-12.69,16.31-12.81a2,2,0,0,1,3.41,2.09ZM449,534.29a2,2,0,0,1-1.78,1.07,2,2,0,0,1-.93-.23,2,2,0,0,1-.83-2.7c2.95-5.61,2.7-12.67,2.7-12.74a2,2,0,1,1,4-.16C452.2,519.86,452.49,527.71,449,534.29Zm9.47-7.83a2,2,0,0,1-1.92,1.44,1.85,1.85,0,0,1-.56-.08,2,2,0,0,1-1.36-2.48c4-13.89-4.64-26.63-4.73-26.76a2,2,0,1,1,3.28-2.28C453.62,496.88,463.09,510.69,458.5,526.46Z" style="fill:#b11030"/><path d="M363.9,466.48c-.58.22-14.18,5.53-15.65,23.55a2,2,0,0,1-2,1.84h-.17a2,2,0,0,1-1.83-2.15c1.69-20.65,17.58-26.73,18.25-27a2,2,0,0,1,1.39,3.75Z" style="fill:#2f292c"/><path d="M347.07,501.91a2,2,0,0,1-1.77,2.21h-.22a2,2,0,0,1-2-1.78,52.67,52.67,0,0,1,0-6.19,2,2,0,1,1,4,.22A46.1,46.1,0,0,0,347.07,501.91Z" style="fill:#2f292c"/><path d="M458.5,526.46a2,2,0,0,1-1.92,1.44,1.85,1.85,0,0,1-.56-.08,2,2,0,0,1-1.36-2.48c4-13.89-4.64-26.63-4.73-26.76a2,2,0,1,1,3.28-2.28C453.62,496.88,463.09,510.69,458.5,526.46Z" style="fill:#2f292c"/><path d="M451.89,546.88c-.34.55-8.42,13.54-19.29,14.69l-.22,0a2,2,0,0,1-.21-4c8.91-1,16.24-12.69,16.31-12.81a2,2,0,0,1,3.41,2.09Z" style="fill:#2f292c"/><path d="M426,560.33a13.59,13.59,0,0,1-5.41,1,15.78,15.78,0,0,1-5.41-1,2,2,0,0,1,1.38-3.76,10.81,10.81,0,0,0,7.74.07,2,2,0,0,1,1.7,3.62Z" style="fill:#2f292c"/><path d="M449,534.29a2,2,0,0,1-1.78,1.07,2,2,0,0,1-.93-.23,2,2,0,0,1-.83-2.7c2.95-5.61,2.7-12.67,2.7-12.74a2,2,0,1,1,4-.16C452.2,519.86,452.49,527.71,449,534.29Z" style="fill:#2f292c"/><path d="M445.86,541a6.14,6.14,0,0,1-2.32,3,1.92,1.92,0,0,1-.89.22,2,2,0,0,1-1.1-3.68,7,7,0,0,0,.65-1.15,2,2,0,0,1,3.66,1.6Z" style="fill:#2f292c"/><path d="M916,678.21c-11.48-12.55-28.24-16-36-17,14.82-15.22,38.43-20.8,38.74-20.88a2,2,0,0,0,.88-3.44l-9-8a2,2,0,0,0-1.61-.49c-14.81,2.12-29,10.88-41,25.33-.67.8-1.3,1.59-1.92,2.38a47.06,47.06,0,0,0-24.44-2.94,69.16,69.16,0,0,0-15.51-4.48c-11.88-2-22.41-.5-30.46,4.38-11.95,7.22-18.68,21.56-20,42.61a49.08,49.08,0,0,0-8.07,12.5c-6.53,14.43-6,31,1.24,40.2a2,2,0,0,0,1.57.76,1.86,1.86,0,0,0,.52-.07,2,2,0,0,0,1.46-1.63c0-.27,4.21-27,20.78-32.72.23-.06.84-.24,1.71-.56-7.71,19.88-5.18,40.53,7.13,56.11,10.49,13.29,26.09,20,39.74,17.07,12.13-2.6,19.46-.55,25.93,1.26a38.19,38.19,0,0,0,10.44,1.92c4.65,0,9.77-1.55,16.41-6.53,1.41-1.06,2.76-2,4.06-3,17.24-12.69,25.89-19.07,28.74-66.48C928.2,699.63,924.39,687.41,916,678.21Zm-7.28-45.68,5.53,4.92a105.87,105.87,0,0,0-18.44,7.48c-8.86,4.63-16,10.19-21.24,16.43a1.84,1.84,0,0,0-.48.59,43.87,43.87,0,0,0-7.42,12.94,27.67,27.67,0,0,1-7.72-.29C863.2,666.4,880.3,637.15,908.69,632.53ZM843,657a42.45,42.45,0,0,1,16.52,1.16,46.88,46.88,0,0,0-16.72,2.29A23.75,23.75,0,0,0,843,657Zm-4,.82a20.74,20.74,0,0,1-4.51,12.4,25.54,25.54,0,0,1-10.69,7.48,1.59,1.59,0,0,0-.41.16,46.59,46.59,0,0,1-8.8,2.31,49.67,49.67,0,0,1,9.68-13.84,15,15,0,0,1,1.11,5.49,2,2,0,0,0,2,2h0a2,2,0,0,0,2-1.95,18.32,18.32,0,0,0-2-8.3A33,33,0,0,1,836,658.8,30.86,30.86,0,0,1,839,657.86Zm-41.27-1.33a35.17,35.17,0,0,1,18.41-4.66,63.84,63.84,0,0,1,18.72,3.1l-.18.07a36.7,36.7,0,0,0-10,5.61c-9.88-4.55-23.63.82-24.24,1.06a2,2,0,0,0,.74,3.85,1.91,1.91,0,0,0,.74-.14c.12,0,11.16-4.34,19.38-1.79a46.25,46.25,0,0,0-5,5.89c-18.05-2.69-25.64,7.39-26,7.83a2,2,0,0,0,.43,2.78,2,2,0,0,0,1.19.39,2,2,0,0,0,1.61-.81c.25-.34,6.09-7.9,20.26-6.47a66.47,66.47,0,0,0-3.94,7.58c-1,.1-2.07.18-3.14.24A44.51,44.51,0,0,0,780,691.44C781.89,674.26,787.83,662.53,797.74,656.53Zm-24,60.26a2,2,0,0,0,2.84,2.81,20.92,20.92,0,0,1,7.29-4c-4.38,3.71-8.12,9.09-11,16a71.68,71.68,0,0,0-3.42,10.27c-3.84-8.45-3.3-20.81,1.74-31.95A44.86,44.86,0,0,1,779,698a2.61,2.61,0,0,0,.22-.24A40.22,40.22,0,0,1,807,685.06c1.47-.08,2.89-.21,4.28-.36h0a59.81,59.81,0,0,0,9.36-1.71,35.77,35.77,0,0,1-3.42,5.18c-4.89-.63-13.88,1.17-15,1.39a2,2,0,0,0,.4,4,1.81,1.81,0,0,0,.4,0,77.11,77.11,0,0,1,10.67-1.43,32.51,32.51,0,0,1-3.5,3c-11,6.3-20.47,4.75-20.6,4.73a2,2,0,0,0-.71,3.94,23.87,23.87,0,0,0,3.75.26A38.28,38.28,0,0,0,806,701.44a30.11,30.11,0,0,1-11,8.35C780.77,709.85,774.07,716.5,773.79,716.79Zm149.53-2.49c-2.74,45.53-10.38,51.16-27.12,63.49-1.31,1-2.67,2-4.09,3-10.2,7.66-15.44,6.19-23.38,4-6.57-1.84-14.74-4.13-27.84-1.32-12.17,2.6-26.21-3.53-35.76-15.64-12.24-15.5-14-36.5-4.8-56.27a32.32,32.32,0,0,0,12.51-13.49,41.09,41.09,0,0,0,13-16.85,29,29,0,0,0,11.78-8.5,24,24,0,0,0,4.13-7.63,42.78,42.78,0,0,1,19.75-2.68A102.15,102.15,0,0,0,855,673.47a15.42,15.42,0,0,1-7-5.15,2,2,0,0,0-3.36,2.18c.3.46,5.7,8.55,19,8.55a47.1,47.1,0,0,0,17.38-3.78,2,2,0,0,0-1.49-3.71,52.44,52.44,0,0,1-8.37,2.61,40.51,40.51,0,0,1,5.55-9.23c4.57.35,24,2.58,36.27,16C920.68,689.28,924.14,700.52,923.32,714.3Z" style="fill:#2f292c"/><path d="M820.63,683a35.77,35.77,0,0,1-3.42,5.18c-4.89-.63-13.88,1.17-15,1.39a2,2,0,0,0,.4,4,1.81,1.81,0,0,0,.4,0,77.11,77.11,0,0,1,10.67-1.43,32.51,32.51,0,0,1-3.5,3c-11,6.3-20.47,4.75-20.6,4.73a2,2,0,0,0-.71,3.94,23.87,23.87,0,0,0,3.75.26A38.28,38.28,0,0,0,806,701.44a30.11,30.11,0,0,1-11,8.35c-14.24.06-20.94,6.71-21.22,7a2,2,0,0,0,2.84,2.81,20.92,20.92,0,0,1,7.29-4c-4.38,3.71-8.12,9.09-11,16a71.68,71.68,0,0,0-3.42,10.27c-3.84-8.45-3.3-20.81,1.74-31.95A44.86,44.86,0,0,1,779,698a2.61,2.61,0,0,0,.22-.24A40.22,40.22,0,0,1,807,685.06c1.47-.08,2.89-.21,4.28-.36h0A59.81,59.81,0,0,0,820.63,683Z" style="fill:#fff"/><path d="M834.87,655l-.18.07a36.7,36.7,0,0,0-10,5.61c-9.88-4.55-23.63.82-24.24,1.06a2,2,0,0,0,.74,3.85,1.91,1.91,0,0,0,.74-.14c.12,0,11.16-4.34,19.38-1.79a46.25,46.25,0,0,0-5,5.89c-18.05-2.69-25.64,7.39-26,7.83a2,2,0,0,0,.43,2.78,2,2,0,0,0,1.19.39,2,2,0,0,0,1.61-.81c.25-.34,6.09-7.9,20.26-6.47a66.47,66.47,0,0,0-3.94,7.58c-1,.1-2.07.18-3.14.24A44.51,44.51,0,0,0,780,691.44c1.86-17.18,7.8-28.91,17.71-34.91a35.17,35.17,0,0,1,18.41-4.66A63.84,63.84,0,0,1,834.87,655Z" style="fill:#fff"/><path d="M839,657.86a20.74,20.74,0,0,1-4.51,12.4,25.54,25.54,0,0,1-10.69,7.48,1.59,1.59,0,0,0-.41.16,46.59,46.59,0,0,1-8.8,2.31,49.67,49.67,0,0,1,9.68-13.84,15,15,0,0,1,1.11,5.49,2,2,0,0,0,2,2h0a2,2,0,0,0,2-1.95,18.32,18.32,0,0,0-2-8.3A33,33,0,0,1,836,658.8,30.86,30.86,0,0,1,839,657.86Z" style="fill:#fff"/><path d="M914.22,637.45a105.87,105.87,0,0,0-18.44,7.48c-8.86,4.63-16,10.19-21.24,16.43a1.84,1.84,0,0,0-.48.59,43.87,43.87,0,0,0-7.42,12.94,27.67,27.67,0,0,1-7.72-.29c4.28-8.2,21.38-37.45,49.77-42.07Z" style="fill:#fff"/><path d="M913,680.91c-12.25-13.39-31.7-15.62-36.27-16a40.51,40.51,0,0,0-5.55,9.23,52.44,52.44,0,0,0,8.37-2.61,2,2,0,0,1,1.49,3.71,47.1,47.1,0,0,1-17.38,3.78c-13.35,0-18.75-8.09-19-8.55a2,2,0,0,1,3.36-2.18,15.42,15.42,0,0,0,7,5.15,102.15,102.15,0,0,1,6.54-11.07,42.78,42.78,0,0,0-19.75,2.68,24,24,0,0,1-4.13,7.63,29,29,0,0,1-11.78,8.5,41.09,41.09,0,0,1-13,16.85,32.32,32.32,0,0,1-12.51,13.49c-9.22,19.77-7.44,40.77,4.8,56.27,9.55,12.11,23.59,18.24,35.76,15.64,13.1-2.81,21.27-.52,27.84,1.32,7.94,2.22,13.18,3.69,23.38-4,1.42-1.06,2.78-2.06,4.09-3,16.74-12.33,24.38-18,27.12-63.49C924.14,700.52,920.68,689.28,913,680.91ZM818.17,755a6.75,6.75,0,0,0,.65,1.16,2,2,0,0,1-1.09,3.67,2,2,0,0,1-.9-.21,6.14,6.14,0,0,1-2.32-3,2,2,0,1,1,3.66-1.61Zm-13.82-11.53a2.23,2.23,0,0,1-.56.08,2,2,0,0,1-1.92-1.44c-4.59-15.77,4.88-29.59,5.29-30.17a2,2,0,0,1,3.28,2.29c-.09.13-8.77,12.86-4.73,26.76A2,2,0,0,1,804.35,743.49Zm3.84-8.3a2,2,0,1,1,4,.17c0,.07-.25,7.13,2.71,12.74a2,2,0,0,1-.84,2.7,2,2,0,0,1-.93.23,2,2,0,0,1-1.77-1.07C807.88,743.38,808.17,735.53,808.19,735.19ZM830,775.46a2,2,0,0,1-2,1.79h-.22c-10.87-1.16-18.95-14.14-19.29-14.69a2,2,0,0,1,3.41-2.1c.07.12,7.4,11.87,16.31,12.81A2,2,0,0,1,830,775.46Zm15.23.6a15.56,15.56,0,0,1-5.4,1,13.31,13.31,0,0,1-5.42-1,2,2,0,0,1,1.7-3.62,10.78,10.78,0,0,0,7.74-.06,2,2,0,1,1,1.38,3.75Zm66.92-70.36c-1.47-18-15.07-23.33-15.65-23.55a2,2,0,0,1,1.39-3.75c.67.25,16.57,6.33,18.25,27a2,2,0,0,1-1.83,2.15h-.17A2,2,0,0,1,912.12,705.7ZM917.28,718a2,2,0,0,1-2,1.78h-.22a2,2,0,0,1-1.77-2.21,46.27,46.27,0,0,0,0-5.54,2,2,0,0,1,4-.21A52.67,52.67,0,0,1,917.28,718Z" style="fill:#b11030"/><path d="M916.11,705.38a2,2,0,0,1-1.83,2.15h-.17a2,2,0,0,1-2-1.84c-1.47-18-15.07-23.33-15.65-23.55a2,2,0,0,1,1.39-3.75C898.53,678.65,914.43,684.73,916.11,705.38Z" style="fill:#2f292c"/><path d="M917.28,718a2,2,0,0,1-2,1.78h-.22a2,2,0,0,1-1.77-2.21,46.27,46.27,0,0,0,0-5.54,2,2,0,0,1,4-.21A52.67,52.67,0,0,1,917.28,718Z" style="fill:#2f292c"/><path d="M810.44,714.25c-.09.13-8.77,12.86-4.73,26.76a2,2,0,0,1-1.36,2.48,2.23,2.23,0,0,1-.56.08,2,2,0,0,1-1.92-1.44c-4.59-15.77,4.88-29.59,5.29-30.17a2,2,0,0,1,3.28,2.29Z" style="fill:#2f292c"/><path d="M830,775.46a2,2,0,0,1-2,1.79h-.22c-10.87-1.16-18.95-14.14-19.29-14.69a2,2,0,0,1,3.41-2.1c.07.12,7.4,11.87,16.31,12.81A2,2,0,0,1,830,775.46Z" style="fill:#2f292c"/><path d="M845.2,776.06a15.56,15.56,0,0,1-5.4,1,13.31,13.31,0,0,1-5.42-1,2,2,0,0,1,1.7-3.62,10.78,10.78,0,0,0,7.74-.06,2,2,0,1,1,1.38,3.75Z" style="fill:#2f292c"/><path d="M814.05,750.8a2,2,0,0,1-.93.23,2,2,0,0,1-1.77-1.07c-3.47-6.58-3.18-14.43-3.16-14.77a2,2,0,1,1,4,.17c0,.07-.25,7.13,2.71,12.74A2,2,0,0,1,814.05,750.8Z" style="fill:#2f292c"/><path d="M819.52,758.75a2,2,0,0,1-1.79,1.1,2,2,0,0,1-.9-.21,6.14,6.14,0,0,1-2.32-3,2,2,0,1,1,3.66-1.61,6.75,6.75,0,0,0,.65,1.16A2,2,0,0,1,819.52,758.75Z" style="fill:#2f292c"/><path d="M286.69,40C278,27.53,261,24,244.53,31.24l-.37.17-.09,0c-5.24,2.47-14.58,7.44-19,9.82-1.62-10.83-1.45-22.57,3.11-29.59a2,2,0,0,0-1.95-3.07l-16,2.23a2,2,0,0,0-1.71,1.8c-.06.67-1.1,13.58,2.86,31-6.85.1-25.86.33-32.38,0a1.85,1.85,0,0,0-.71.1,33.84,33.84,0,0,0-12.79,2.7c-18.83,8.43-23,28.14-14.33,68.05a85.72,85.72,0,0,0,27.64,47.08c10.45,9.05,22.78,15.06,32.82,16.09a2.1,2.1,0,0,0,.62.16c2.8.2,5.51.3,8.16.3a95.51,95.51,0,0,0,56.32-17.72c13.36-9.58,20-19.55,20.78-20.68a70.13,70.13,0,0,0,6.1-7.74C325.91,99.4,293.43,49.66,286.69,40Zm-53.23,1.31a47,47,0,0,0-5.4,13.37,91.09,91.09,0,0,1-2.29-9.27C227.35,44.58,230.23,43,233.46,41.33Zm-21-26.76,10.47-1.46c-3.61,8.59-3.25,20.58-1.38,31.21a2.14,2.14,0,0,0,.14.78A86.5,86.5,0,0,0,226.83,63a1.57,1.57,0,0,0,.18.42c.37.82.73,1.57,1.09,2.21,2.82,5.1,9.12,6.27,15.22,7.39,7.84,1.44,15.24,2.81,16.7,11.52,2.1,12.62-2.07,19.42-7.35,28-1.65,2.7-3.36,5.48-5,8.63a50,50,0,0,0-4.32,11.17c-5.44-7.48-14.86-9-24-10.56-1.56-.26-3.11-.52-4.65-.8-11.63-2.17-16.65-9.6-15.36-22.71.46-4.65,4.37-8.24,8.89-12.4,5.45-5,11.9-10.95,12.38-20.27a2.07,2.07,0,0,0,0-.43,26.74,26.74,0,0,0-1.67-9.77A116.17,116.17,0,0,1,212.45,14.57Zm32.9,128.16a9,9,0,0,1,1.6-.14c5,0,7.76,4.45,10.81,10.2.36.68.71,1.35,1.06,2l-.9-.17a2,2,0,0,0-2.33,1.53l-.55,2.5-3.13-3.24a2,2,0,0,0-3.4,1l-1,4.76-2.12-2.5a2.05,2.05,0,0,0-1.76-.69,2,2,0,0,0-1.55,1.07l-1.27,2.48c-.91-5.37-1.39-12.57,1-16.34A5,5,0,0,1,245.35,142.73Zm-33-95.13c.77,2.94,1.69,6,2.78,9.1q.15.42.27.84a45.43,45.43,0,0,0-15.35-9.8C205.33,47.7,210,47.64,212.39,47.6Zm2.21,126.16h-.54c-18.86-.48-50.71-22.18-58.95-60.18s-4.89-56,12-63.55c15.31-6.85,42.3,1.81,49.44,15.72-.51,7.42-5.69,12.19-11.09,17.16-4.92,4.51-9.56,8.78-10.17,15-1.49,15.13,4.94,24.48,18.6,27,1.57.29,3.15.55,4.73.81,10.87,1.8,20.34,3.37,23.86,13.72a9,9,0,0,0-4.12,3.58c-2.13,3.37-2.52,8.27-2.27,12.84C236,156.18,230.39,173.76,214.6,173.76Zm13.12,0a28.35,28.35,0,0,0,6.64-6.31,37.89,37.89,0,0,0,2.73-4.11c.48,2.54,1,4.29,1,4.51a2,2,0,0,0,1.72,1.45H240a2,2,0,0,0,1.78-1.08l2.45-4.78,2.84,3.34a2,2,0,0,0,3.48-.89l1.06-5.06,3.09,3.21a2,2,0,0,0,3.39-1l.94-4.23,4.26.81a2,2,0,0,0,1.32-3.72,8.59,8.59,0,0,1-2.17-2.88,31.49,31.49,0,0,0,6.53.68,33.1,33.1,0,0,0,12.63-2.54A90.9,90.9,0,0,1,227.72,173.79Zm72.62-44.13c-18.08,26.4-37.12,20-40.53,18.52-2.66-4.64-6.51-9.75-13.13-9.59-.12-2.29.32-7.34,4.57-15.61,1.54-3,3.21-5.74,4.83-8.37,5.26-8.58,10.23-16.68,7.88-30.78C262.05,72.35,252.06,70.51,244,69c-5.42-1-10.54-1.94-12.44-5.38-.27-.49-.54-1-.82-1.63.39-3.28,3.09-21.74,15.36-27.12,14.69-6.45,29.67-3.47,37.27,7.41C289.89,51.57,321.12,99.31,300.34,129.66Z" style="fill:#2f292c"/><path d="M281.64,151.24a90.9,90.9,0,0,1-53.92,22.55,28.35,28.35,0,0,0,6.64-6.31,37.89,37.89,0,0,0,2.73-4.11c.48,2.54,1,4.29,1,4.51a2,2,0,0,0,1.72,1.45H240a2,2,0,0,0,1.78-1.08l2.45-4.78,2.84,3.34a2,2,0,0,0,3.48-.89l1.06-5.06,3.09,3.21a2,2,0,0,0,3.39-1l.94-4.23,4.26.81a2,2,0,0,0,1.32-3.72,8.59,8.59,0,0,1-2.17-2.88,31.49,31.49,0,0,0,6.53.68A33.1,33.1,0,0,0,281.64,151.24Z" style="fill:#b11030"/><path d="M258.82,154.76l-.9-.17a2,2,0,0,0-2.33,1.53l-.55,2.5-3.13-3.24a2,2,0,0,0-3.4,1l-1,4.76-2.12-2.5a2.05,2.05,0,0,0-1.76-.69,2,2,0,0,0-1.55,1.07l-1.27,2.48c-.91-5.37-1.39-12.57,1-16.34a5,5,0,0,1,3.56-2.4,9,9,0,0,1,1.6-.14c5,0,7.76,4.45,10.81,10.2C258.12,153.47,258.47,154.14,258.82,154.76Z" style="fill:#b11030"/><path d="M283.41,42.31c-7.6-10.88-22.58-13.86-37.27-7.41-12.27,5.38-15,23.84-15.36,27.12.28.59.55,1.14.82,1.63,1.9,3.44,7,4.39,12.44,5.38,8,1.48,18,3.32,19.92,14.8,2.35,14.1-2.62,22.2-7.88,30.78-1.62,2.63-3.29,5.36-4.83,8.37-4.25,8.27-4.69,13.32-4.57,15.61,6.62-.16,10.47,4.95,13.13,9.59,3.41,1.44,22.45,7.88,40.53-18.52C321.12,99.31,289.89,51.57,283.41,42.31Zm10.25,34.52a2,2,0,0,1,2.77.55c.3.45,7.23,11,5.88,22.85a2,2,0,0,1-2,1.77h-.23a2,2,0,0,1-1.76-2.21c1.18-10.41-5.17-20.08-5.23-20.18A2,2,0,0,1,293.66,76.83ZM288,113.71c3.92-7.08,1.31-15.13,1.28-15.21a2,2,0,0,1,3.79-1.27c.14.39,3.22,9.76-1.57,18.42a2,2,0,0,1-1.75,1,1.94,1.94,0,0,1-1-.25A2,2,0,0,1,288,113.71Zm14.27-2.12c-3.27,19.31-21.41,28.33-22.18,28.7a2,2,0,0,1-.88.2,2,2,0,0,1-.87-3.8c.23-.11,17.07-8.55,20-25.77a2,2,0,0,1,3.95.67Z" style="fill:#fff"/><path d="M233.46,41.33a47,47,0,0,0-5.4,13.37,91.09,91.09,0,0,1-2.29-9.27C227.35,44.58,230.23,43,233.46,41.33Z" style="fill:#b11030"/><path d="M260,84.49c-1.46-8.71-8.86-10.08-16.7-11.52-6.1-1.12-12.4-2.29-15.22-7.39-.36-.64-.72-1.39-1.09-2.21a1.57,1.57,0,0,1-.18-.42,86.5,86.5,0,0,1-5.15-17.85,2.14,2.14,0,0,1-.14-.78c-1.87-10.63-2.23-22.62,1.38-31.21l-10.47,1.46a116.17,116.17,0,0,0,6.49,40.81,26.74,26.74,0,0,1,1.67,9.77,2.07,2.07,0,0,1,0,.43c-.48,9.32-6.93,15.26-12.38,20.27-4.52,4.16-8.43,7.75-8.89,12.4-1.29,13.11,3.73,20.54,15.36,22.71,1.54.28,3.09.54,4.65.8,9.18,1.52,18.6,3.08,24,10.56a50,50,0,0,1,4.32-11.17c1.62-3.15,3.33-5.93,5-8.63C258,103.91,262.12,97.11,260,84.49Zm-33.79,26.17a7.62,7.62,0,0,1-5.72,2.31,12.19,12.19,0,0,1-2.84-.36c-4.48-1.06-6.11-3.6-6.69-5.54-2.59-8.74,11-23.33,12.54-25a2,2,0,0,1,3.37.84C227.49,85.08,232.59,104,226.23,110.66Zm27-9.31a6.85,6.85,0,0,1-5.15,2.51,6.72,6.72,0,0,1-1.14-.1c-8.12-1.46-15.47-19.23-16.28-21.25a2,2,0,0,1,2.49-2.64c2,.67,19.79,6.78,21.92,14.88A6.86,6.86,0,0,1,253.23,101.35Z" style="fill:#fff"/><path d="M215.44,57.54a45.43,45.43,0,0,0-15.35-9.8c5.24,0,9.93-.1,12.3-.14.77,2.94,1.69,6,2.78,9.1Q215.32,57.12,215.44,57.54Z" style="fill:#b11030"/><path d="M218.67,125.7c-1.58-.26-3.16-.52-4.73-.81-13.66-2.55-20.09-11.9-18.6-27,.61-6.17,5.25-10.44,10.17-15,5.4-5,10.58-9.74,11.09-17.16C209.46,51.84,182.47,43.18,167.16,50c-16.94,7.58-20.32,25.4-12,63.55s40.09,59.7,58.95,60.18h.54c15.79,0,21.44-17.58,21.54-17.92-.25-4.57.14-9.47,2.27-12.84a9,9,0,0,1,4.12-3.58C239,129.07,229.54,127.5,218.67,125.7ZM165,112.16a2,2,0,0,1-1.33.51,2,2,0,0,1-1.5-.67c-4.38-4.94-4.9-15.68-4.92-16.13a2,2,0,0,1,1.91-2.08,2,2,0,0,1,2.09,1.9c.12,2.71,1.06,10.44,3.92,13.65A2,2,0,0,1,165,112.16Zm7.77-55.1c-.16.14-15.64,14.21-11.58,30.47A2,2,0,0,1,159.7,90a2.12,2.12,0,0,1-.49.06,2,2,0,0,1-1.94-1.51c-1.94-7.76-.32-16.19,4.67-24.38a47.91,47.91,0,0,1,8.13-10.05,2,2,0,0,1,2.66,3Zm51.73,108.39a27.46,27.46,0,0,1-12.82,3.34A24.7,24.7,0,0,1,195,162.23a2,2,0,0,1,2.86-2.8c.41.42,10.23,10.06,24.76,2.48a2,2,0,1,1,1.85,3.54Z" style="fill:#fff"/><path d="M224.46,165.45a27.46,27.46,0,0,1-12.82,3.34A24.7,24.7,0,0,1,195,162.23a2,2,0,0,1,2.86-2.8c.41.42,10.23,10.06,24.76,2.48a2,2,0,1,1,1.85,3.54Z" style="fill:#2f292c"/><path d="M302.3,111.59c-3.27,19.31-21.41,28.33-22.18,28.7a2,2,0,0,1-.88.2,2,2,0,0,1-.87-3.8c.23-.11,17.07-8.55,20-25.77a2,2,0,0,1,3.95.67Z" style="fill:#2f292c"/><path d="M302.31,100.23a2,2,0,0,1-2,1.77h-.23a2,2,0,0,1-1.76-2.21c1.18-10.41-5.17-20.08-5.23-20.18a2,2,0,0,1,3.32-2.22C296.73,77.83,303.66,88.39,302.31,100.23Z" style="fill:#2f292c"/><path d="M291.53,115.65a2,2,0,0,1-1.75,1,1.94,1.94,0,0,1-1-.25,2,2,0,0,1-.79-2.72c3.92-7.08,1.31-15.13,1.28-15.21a2,2,0,0,1,3.79-1.27C293.24,97.62,296.32,107,291.53,115.65Z" style="fill:#2f292c"/><path d="M226.89,82.94a2,2,0,0,0-3.37-.84c-1.56,1.64-15.13,16.23-12.54,25,.58,1.94,2.21,4.48,6.69,5.54a12.19,12.19,0,0,0,2.84.36,7.62,7.62,0,0,0,5.72-2.31C232.59,104,227.49,85.08,226.89,82.94Zm-3.55,25c-.38.39-1.53,1.6-4.75.83s-3.62-2.28-3.77-2.79c-1.25-4.19,4.22-12.5,9.11-18.3C225.52,94.94,226.41,104.7,223.34,107.89Z" style="fill:#2f292c"/><path d="M223.34,107.89c-.38.39-1.53,1.6-4.75.83s-3.62-2.28-3.77-2.79c-1.25-4.19,4.22-12.5,9.11-18.3C225.52,94.94,226.41,104.7,223.34,107.89Z" style="fill:#b11030"/><path d="M255.07,94.75c-2.13-8.1-19.9-14.21-21.92-14.88a2,2,0,0,0-2.49,2.64c.81,2,8.16,19.79,16.28,21.25a6.72,6.72,0,0,0,1.14.1,7.67,7.67,0,0,0,7-9.11Zm-4.8,3.91c-1.13,1.25-2,1.28-2.62,1.16-3.64-.65-8.29-8.08-11.38-14.51,6.46,2.66,14,6.8,14.93,10.46A2.89,2.89,0,0,1,250.27,98.66Z" style="fill:#2f292c"/><path d="M250.27,98.66c-1.13,1.25-2,1.28-2.62,1.16-3.64-.65-8.29-8.08-11.38-14.51,6.46,2.66,14,6.8,14.93,10.46A2.89,2.89,0,0,1,250.27,98.66Z" style="fill:#b11030"/><path d="M172.73,57.06c-.16.14-15.64,14.21-11.58,30.47A2,2,0,0,1,159.7,90a2.12,2.12,0,0,1-.49.06,2,2,0,0,1-1.94-1.51c-1.94-7.76-.32-16.19,4.67-24.38a47.91,47.91,0,0,1,8.13-10.05,2,2,0,0,1,2.66,3Z" style="fill:#2f292c"/><path d="M165,112.16a2,2,0,0,1-1.33.51,2,2,0,0,1-1.5-.67c-4.38-4.94-4.9-15.68-4.92-16.13a2,2,0,0,1,1.91-2.08,2,2,0,0,1,2.09,1.9c.12,2.71,1.06,10.44,3.92,13.65A2,2,0,0,1,165,112.16Z" style="fill:#2f292c"/><path d="M498.35,872.64a1.86,1.86,0,0,0-.11-.58h0a1.73,1.73,0,0,0-.3-.53l0,0c-.1-.12-10.12-12.38-10.65-22.21-.29-5.46-4.62-11.26-9.19-17.4C473,825,467.71,818,468,811.54c.49-10-14.7-23.41-19.36-27.27-9.43-7.79-23.44-16.62-34.47-18-7.71-1-12.12-4.28-17.23-8.12-7.12-5.35-15.2-11.41-33.86-13.26-12-1.19-20.56-2-25.52-2.45l-3.61-.29c-9.57-10-15.16-16.4-15.27-16.53a2,2,0,1,0-3,2.64c.22.25,5.77,6.53,15.24,16.48-1,5.89-5.54,35.89,7,52.57,6,8,6.07,12.05,6.15,15.65.11,5.06.76,8.58,8.81,14.86,6,4.65,9.8,10.65,13.52,16.45,5.49,8.56,10.67,16.65,21.56,17.83a78.36,78.36,0,0,1,17.65,4.26c6.4,2.15,12.45,4.17,21.09,3.62a50.81,50.81,0,0,0,11.68-2.13c4.9-1.4,7.36-2.1,15.91,2.27,8.19,4.19,16.77,3.62,24.34,3.11,6.2-.41,12.05-.8,16.95,1.35a1,1,0,0,0,.24.08l.15.05a1.66,1.66,0,0,0,.32,0h.11a2.07,2.07,0,0,0,.49-.07l.16-.06a1.41,1.41,0,0,0,.31-.14l.16-.1a1.27,1.27,0,0,0,.25-.21,1,1,0,0,0,.14-.15L498,874s0-.1.07-.14.1-.14.14-.22a1.34,1.34,0,0,0,.07-.18l0-.11a1.77,1.77,0,0,0,.09-.56A.38.38,0,0,1,498.35,872.64Zm-20-3.41c-7.4.49-15.05,1-22.26-2.68-5.5-2.81-9-3.78-12.07-3.78a24.16,24.16,0,0,0-6.75,1.22,46.43,46.43,0,0,1-10.84,2c-7.86.51-13.29-1.32-19.56-3.42a82.85,82.85,0,0,0-18.5-4.45c-9-1-13.45-7.94-18.62-16-3.72-5.81-7.93-12.38-14.43-17.46-7.13-5.56-7.19-8-7.27-11.79-.09-4-.2-9-6.95-18-10-13.34-8-37.23-6.67-46.53,3.38,3.51,7.16,7.38,11.3,11.52a2,2,0,0,0,.63.63c.88.89,1.79,1.78,2.7,2.69-5.4,12.21,2.85,33,3.21,33.94a2,2,0,0,0,1.86,1.26,1.92,1.92,0,0,0,.74-.15,2,2,0,0,0,1.12-2.6c-.08-.2-7.33-18.51-3.82-29.38,4.06,4,8.4,8.19,13,12.52-3.08,7.62-3.2,17.16-.33,28.39a80.82,80.82,0,0,0,5.56,15.36,2,2,0,0,0,1.78,1.1,2,2,0,0,0,.9-.21,2,2,0,0,0,.89-2.69c-.12-.23-11.13-22.4-5.63-39l3.05,2.84a2,2,0,0,0,.76.71q3.09,2.86,6.3,5.77c-5.83,20.83,17.83,55.43,18.86,56.92a2,2,0,0,0,3.29-2.27c-.23-.34-22.09-32.28-18.75-51.58q3.38,3,6.87,6.11a1.94,1.94,0,0,0,.6.61l.21.11c5.24,4.58,10.65,9.2,16.2,13.8-2.72,16.92,18.56,38.75,19.49,39.69a2,2,0,0,0,2.85-2.8,101.42,101.42,0,0,1-11.61-14.77c7.24-.13,15.91,9.65,18.92,13.89a2,2,0,1,0,3.26-2.31c-.54-.76-12.8-17.81-24.4-15.34-2.75-5-4.79-10.37-4.76-15.28,1.45,1.18,2.9,2.36,4.37,3.53a2,2,0,0,0,.79.64c22,17.6,45.86,34.36,69.59,46.86C482.29,869,480.34,869.1,478.35,869.23Zm-59.05-48.5c20.27-6.9,49.15,20.26,49.46,20.55a2,2,0,0,0,2.76-2.89A115.53,115.53,0,0,0,452,823.91c-14.32-8.33-26.81-10.39-36.24-6-7.86-6.3-15.36-12.62-22.38-18.74,4.7-2.68,17.34.88,23.4,3.33a2,2,0,0,0,1.5-3.71c-2.25-.91-20.74-8.1-28-2.33-4.72-4.15-9.2-8.2-13.41-12.07,22.09-6.42,53.95,16.52,54.28,16.76a2,2,0,0,0,2.36-3.23,123.28,123.28,0,0,0-13.35-8.17c3.12-1.3,7.95-.31,9.93.34a2,2,0,0,0,1.25-3.8c-.44-.14-10.17-3.27-15.29,1.37-1.22-.59-2.47-1.18-3.76-1.75-15.66-6.94-28.69-8.48-38.77-4.63-8.18-7.61-15.71-14.91-22.4-21.58,14-3.45,36.16,8.09,36.4,8.21a2,2,0,1,0,1.87-3.53c-1.08-.57-25.9-13.53-41.47-7.88-3.53-3.55-6.79-6.89-9.76-10,4.05.36,11.36,1,24.56,2.36,17.55,1.74,25.15,7.45,31.86,12.48,5.33,4,10.37,7.79,19.13,8.89,18,2.26,50.91,29.16,50.34,41.12-.38,7.87,5.31,15.51,10.82,22.9,4.21,5.64,8.18,11,8.41,15.22.34,6.32,3.85,13.17,6.92,18C465.81,855.17,441.29,838.13,419.3,820.73Z" style="fill:#2f292c"/><path d="M484.21,868.92c-1.92.05-3.87.18-5.86.31-7.4.49-15.05,1-22.26-2.68-5.5-2.81-9-3.78-12.07-3.78a24.16,24.16,0,0,0-6.75,1.22,46.43,46.43,0,0,1-10.84,2c-7.86.51-13.29-1.32-19.56-3.42a82.85,82.85,0,0,0-18.5-4.45c-9-1-13.45-7.94-18.62-16-3.72-5.81-7.93-12.38-14.43-17.46-7.13-5.56-7.19-8-7.27-11.79-.09-4-.2-9-6.95-18-10-13.34-8-37.23-6.67-46.53,3.38,3.51,7.16,7.38,11.3,11.52a2,2,0,0,0,.63.63c.88.89,1.79,1.78,2.7,2.69-5.4,12.21,2.85,33,3.21,33.94a2,2,0,0,0,1.86,1.26,1.92,1.92,0,0,0,.74-.15,2,2,0,0,0,1.12-2.6c-.08-.2-7.33-18.51-3.82-29.38,4.06,4,8.4,8.19,13,12.52-3.08,7.62-3.2,17.16-.33,28.39a80.82,80.82,0,0,0,5.56,15.36,2,2,0,0,0,1.78,1.1,2,2,0,0,0,.9-.21,2,2,0,0,0,.89-2.69c-.12-.23-11.13-22.4-5.63-39l3.05,2.84a2,2,0,0,0,.76.71q3.09,2.86,6.3,5.77c-5.83,20.83,17.83,55.43,18.86,56.92a2,2,0,0,0,3.29-2.27c-.23-.34-22.09-32.28-18.75-51.58q3.38,3,6.87,6.11a1.94,1.94,0,0,0,.6.61l.21.11c5.24,4.58,10.65,9.2,16.2,13.8-2.72,16.92,18.56,38.75,19.49,39.69a2,2,0,0,0,2.85-2.8,101.42,101.42,0,0,1-11.61-14.77c7.24-.13,15.91,9.65,18.92,13.89a2,2,0,1,0,3.26-2.31c-.54-.76-12.8-17.81-24.4-15.34-2.75-5-4.79-10.37-4.76-15.28,1.45,1.18,2.9,2.36,4.37,3.53a2,2,0,0,0,.79.64C436.62,839.66,460.48,856.42,484.21,868.92Z" style="fill:#fff"/><path d="M471.58,841.21a2,2,0,0,0-.06-2.82A115.53,115.53,0,0,0,452,823.91c-14.32-8.33-26.81-10.39-36.24-6-7.86-6.3-15.36-12.62-22.38-18.74,4.7-2.68,17.34.88,23.4,3.33a2,2,0,0,0,1.5-3.71c-2.25-.91-20.74-8.1-28-2.33-4.72-4.15-9.2-8.2-13.41-12.07,22.09-6.42,53.95,16.52,54.28,16.76a2,2,0,0,0,2.36-3.23,123.28,123.28,0,0,0-13.35-8.17c3.12-1.3,7.95-.31,9.93.34a2,2,0,0,0,1.25-3.8c-.44-.14-10.17-3.27-15.29,1.37-1.22-.59-2.47-1.18-3.76-1.75-15.66-6.94-28.69-8.48-38.77-4.63-8.18-7.61-15.71-14.91-22.4-21.58,14-3.45,36.16,8.09,36.4,8.21a2,2,0,1,0,1.87-3.53c-1.08-.57-25.9-13.53-41.47-7.88-3.53-3.55-6.79-6.89-9.76-10,4.05.36,11.36,1,24.56,2.36,17.55,1.74,25.15,7.45,31.86,12.48,5.33,4,10.37,7.79,19.13,8.89,18,2.26,50.91,29.16,50.34,41.12-.38,7.87,5.31,15.51,10.82,22.9,4.21,5.64,8.18,11,8.41,15.22.34,6.32,3.85,13.17,6.92,18-24.37-12.33-48.89-29.37-70.88-46.77,20.27-6.9,49.15,20.26,49.46,20.55a2,2,0,0,0,2.82-.07Z" style="fill:#fff"/><path d="M146,555.68c-.29-1.08-7.24-25.48-31.35-39.31a13.72,13.72,0,0,0,.48-8.61c-1.32-4.67-5.17-8.57-11.43-11.62-9.61-4.66-12.93-3.77-16.26-2.12-1.63.8-2.91,1.44-6.63.28-10.91-3.4-32.08-4.83-51.35,23.8h0v0a2.28,2.28,0,0,0-.17.3s0,.05,0,.07a1.43,1.43,0,0,0-.09.27l0,.14a1.36,1.36,0,0,0,0,.2.54.54,0,0,0,0,.18,1,1,0,0,0,0,.17.63.63,0,0,0,0,.19.75.75,0,0,0,0,.16c0,.05,0,.11,0,.16a2,2,0,0,0,2.44,1.19l.05,0,.1,0c.74-.29,1.46-.54,2.19-.81,3.21-.89,9.84-1.64,17,4.05,11.16,8.9,22.52,12.68,33.77,11.22a39,39,0,0,0,8.15-2,49,49,0,0,0,19.63-13.81c22.76,13,29.55,36.72,29.62,37a2,2,0,0,0,2.46,1.39l.15,0A2,2,0,0,0,146,555.68ZM84.21,531.6c-10.13,1.31-20.48-2.18-30.76-10.38a25.43,25.43,0,0,0-8.56-4.6A123,123,0,0,1,72,511.46c-2,2.36-8,4.11-11,4.64a2,2,0,0,0,.67,3.94,38,38,0,0,0,6.25-1.66c3.7-1.34,7.79-3.6,8.65-7.12a81,81,0,0,1,11.35.55c-1.4,2.28-6.23,4.86-10,6.15l0,0a2,2,0,0,0,1.32,3.77l1.05-.36a33.91,33.91,0,0,0,5.6-2.57c.17,1.94-3,5.69-5.14,7.62a2,2,0,0,0,2,3.38,2.05,2.05,0,0,0,.65-.38c1.15-1,6.9-6.36,6.47-11a4.84,4.84,0,0,0-.65-2.06,9.9,9.9,0,0,0,2.78-4,67.39,67.39,0,0,1,9.74,2.46h0a62.37,62.37,0,0,1,7.21,3C105.43,521.62,96.57,530,84.21,531.6Zm26.85-17.13a66,66,0,0,0-6.53-2.78c.64-5.31-3.28-9-5.7-10.24A2,2,0,0,0,97,505a6.22,6.22,0,0,1,3.61,5.39,73,73,0,0,0-8.73-2c-2-5.59-10.51-7.57-11.54-7.79a2,2,0,0,0-.84,3.92,18.6,18.6,0,0,1,7,3.16,88.32,88.32,0,0,0-10.5-.38c-1.16-2.14-4.2-5.78-11.68-6.42a2,2,0,0,0-.34,4c3.76.32,5.94,1.53,7.19,2.67a135.17,135.17,0,0,0-34.52,7.59c16.68-21,33.86-19.81,43-17,5.25,1.64,7.66.45,9.59-.51,2.13-1.05,4.13-2,12.74,2.14,5.17,2.51,8.3,5.56,9.31,9.05A9.56,9.56,0,0,1,111.06,514.47Z" style="fill:#2f292c"/><path d="M111.06,514.47a66,66,0,0,0-6.53-2.78c.64-5.31-3.28-9-5.7-10.24A2,2,0,0,0,97,505a6.22,6.22,0,0,1,3.61,5.39,73,73,0,0,0-8.73-2c-2-5.59-10.51-7.57-11.54-7.79a2,2,0,0,0-.84,3.92,18.6,18.6,0,0,1,7,3.16,88.32,88.32,0,0,0-10.5-.38c-1.16-2.14-4.2-5.78-11.68-6.42a2,2,0,0,0-.34,4c3.76.32,5.94,1.53,7.19,2.67a135.17,135.17,0,0,0-34.52,7.59c16.68-21,33.86-19.81,43-17,5.25,1.64,7.66.45,9.59-.51,2.13-1.05,4.13-2,12.74,2.14,5.17,2.51,8.3,5.56,9.31,9.05A9.56,9.56,0,0,1,111.06,514.47Z" style="fill:#b11030"/><path d="M108.85,517.85c-3.42,3.77-12.28,12.15-24.64,13.75-10.13,1.31-20.48-2.18-30.76-10.38a25.43,25.43,0,0,0-8.56-4.6A123,123,0,0,1,72,511.46c-2,2.36-8,4.11-11,4.64a2,2,0,0,0,.67,3.94,38,38,0,0,0,6.25-1.66c3.7-1.34,7.79-3.6,8.65-7.12a81,81,0,0,1,11.35.55c-1.4,2.28-6.23,4.86-10,6.15l0,0a2,2,0,0,0,1.32,3.77l1.05-.36a33.91,33.91,0,0,0,5.6-2.57c.17,1.94-3,5.69-5.14,7.62a2,2,0,0,0,2,3.38,2.05,2.05,0,0,0,.65-.38c1.15-1,6.9-6.36,6.47-11a4.84,4.84,0,0,0-.65-2.06,9.9,9.9,0,0,0,2.78-4,67.39,67.39,0,0,1,9.74,2.46h0A62.37,62.37,0,0,1,108.85,517.85Z" style="fill:#b11030"/><path d="M444.36,105.76a0,0,0,0,1,0,0v0a1.94,1.94,0,0,0-.21-.27l-.06,0a1.29,1.29,0,0,0-.21-.19l-.12-.08-.17-.1-.17-.07-.16-.06-.19,0-.16,0-.16,0a2,2,0,0,0-2.05,1.77s0,0,0,0,0,.07,0,.11c0,.79-.08,1.55-.12,2.33-.44,3.3-2.36,9.69-10.4,14-12.58,6.75-20.52,15.71-23.6,26.62a38.11,38.11,0,0,0-1.38,8.27,49.06,49.06,0,0,0,5,23.49c-20.93,15.79-45.38,12.71-45.64,12.67a2,2,0,0,0-2.25,1.71c0,.06,0,.11,0,.16a2,2,0,0,0,1.73,2.1c1.1.15,26.27,3.37,48.47-13.36a13.58,13.58,0,0,0,7.73,3.83c4.81.63,9.91-1.37,15.18-5.93,8.07-7,8.55-10.4,8.35-14.11-.1-1.81-.18-3.24,2.36-6.2C453.45,153.65,463.09,134.75,444.36,105.76Zm-34,45c2.79-9.83,10.07-18,21.65-24.19a25.48,25.48,0,0,0,7.61-6.06,123.61,123.61,0,0,1-5.92,26.93c-1.38-2.8-.65-8.93.08-12a2,2,0,0,0-3.89-.93A37.57,37.57,0,0,0,429,141c-.23,3.93.24,8.57,3.14,10.76a83.33,83.33,0,0,1-5,10.21c-1.55-2.18-2-7.64-1.72-11.62v0a2,2,0,0,0-4-.27c0,.38-.06.75-.08,1.11a34.28,34.28,0,0,0,.16,6.16c-1.85-.61-4.07-5-5-7.73a2,2,0,0,0-3.9.52,2.13,2.13,0,0,0,.1.74c.48,1.46,3.12,8.84,7.55,10.28a4.94,4.94,0,0,0,2.14.21,10.06,10.06,0,0,0,2.57,4.12,67.41,67.41,0,0,1-6.09,8,0,0,0,0,0,0,0,62.46,62.46,0,0,1-5.58,5.46C411.2,174.23,407,162.79,410.38,150.8ZM443,159.74c-3.58,4.18-3.43,6.87-3.31,9,.13,2.37.25,4.6-7,10.87-4.34,3.76-8.38,5.44-12,5a9.58,9.58,0,0,1-5.14-2.4,67.58,67.58,0,0,0,5.12-4.9c4.63,2.67,9.53.5,11.66-1.22a2,2,0,0,0-2.51-3.12,6.2,6.2,0,0,1-6.37,1.2,71.65,71.65,0,0,0,5.29-7.22c6,.32,11.1-6.69,11.71-7.55a2,2,0,0,0-3.27-2.31,18.75,18.75,0,0,1-5.66,5.19,88.38,88.38,0,0,0,4.48-9.5c2.43-.22,7-1.59,10.5-8.21A2,2,0,1,0,443,142.7c-1.78,3.33-3.75,4.86-5.29,5.56a134.87,134.87,0,0,0,6.61-34.73C457.08,137.14,449.2,152.46,443,159.74Z" style="fill:#2f292c"/><path d="M443,159.74c-3.58,4.18-3.43,6.87-3.31,9,.13,2.37.25,4.6-7,10.87-4.34,3.76-8.38,5.44-12,5a9.58,9.58,0,0,1-5.14-2.4,67.58,67.58,0,0,0,5.12-4.9c4.63,2.67,9.53.5,11.66-1.22a2,2,0,0,0-2.51-3.12,6.2,6.2,0,0,1-6.37,1.2,71.65,71.65,0,0,0,5.29-7.22c6,.32,11.1-6.69,11.71-7.55a2,2,0,0,0-3.27-2.31,18.75,18.75,0,0,1-5.66,5.19,88.38,88.38,0,0,0,4.48-9.5c2.43-.22,7-1.59,10.5-8.21A2,2,0,1,0,443,142.7c-1.78,3.33-3.75,4.86-5.29,5.56a134.87,134.87,0,0,0,6.61-34.73C457.08,137.14,449.2,152.46,443,159.74Z" style="fill:#b11030"/><path d="M439.64,120.55a123.61,123.61,0,0,1-5.92,26.93c-1.38-2.8-.65-8.93.08-12a2,2,0,0,0-3.89-.93A37.57,37.57,0,0,0,429,141c-.23,3.93.24,8.57,3.14,10.76a83.33,83.33,0,0,1-5,10.21c-1.55-2.18-2-7.64-1.72-11.62v0a2,2,0,0,0-4-.27c0,.38-.06.75-.08,1.11a34.28,34.28,0,0,0,.16,6.16c-1.85-.61-4.07-5-5-7.73a2,2,0,0,0-3.9.52,2.13,2.13,0,0,0,.1.74c.48,1.46,3.12,8.84,7.55,10.28a4.94,4.94,0,0,0,2.14.21,10.06,10.06,0,0,0,2.57,4.12,67.41,67.41,0,0,1-6.09,8,0,0,0,0,0,0,0,62.46,62.46,0,0,1-5.58,5.46c-2.12-4.63-6.33-16.07-2.94-28.06,2.79-9.83,10.07-18,21.65-24.19A25.48,25.48,0,0,0,439.64,120.55Z" style="fill:#b11030"/><path d="M701.73,898.69h0v0a2.25,2.25,0,0,0-.16-.31l0-.06a1.92,1.92,0,0,0-.18-.22l-.1-.1a1.07,1.07,0,0,0-.16-.14l-.14-.1-.15-.08-.18-.09-.15,0-.16,0a2,2,0,0,0-2.34,1.37.06.06,0,0,0,0,0s0,.07,0,.11c-.17.77-.36,1.51-.54,2.27-1,3.16-4.11,9.09-12.8,11.85-13.6,4.33-23.06,11.67-28.1,21.83a39.18,39.18,0,0,0-2.88,7.88,49,49,0,0,0,.57,24c-23.49,11.67-47,4.14-47.2,4.06a2,2,0,0,0-2.53,1.27c0,.05,0,.1,0,.15a2,2,0,0,0,1.31,2.37c1,.36,25.2,8.15,50.1-4.2a13.59,13.59,0,0,0,6.9,5.18c4.6,1.5,10,.48,16-3,9.22-5.39,10.32-8.64,10.81-12.33.23-1.8.42-3.21,3.45-5.67C701.85,947.43,714.81,930.62,701.73,898.69Zm-41.68,38c4.54-9.15,13.2-15.81,25.73-19.8a25.25,25.25,0,0,0,8.59-4.56,123,123,0,0,1-10.77,25.39c-.84-3,1-8.9,2.28-11.76a2,2,0,0,0-3.66-1.63,39.59,39.59,0,0,0-2.09,6.12c-.94,3.82-1.34,8.47,1.11,11.15a81.16,81.16,0,0,1-6.76,9.13c-1.12-2.44-.58-7.89.45-11.75a.06.06,0,0,1,0,0,2,2,0,0,0-3.87-1c-.1.36-.2.72-.28,1.07a34.36,34.36,0,0,0-1,6.09c-1.7-.94-3.08-5.63-3.47-8.52a2,2,0,0,0-3.92-.21,1.88,1.88,0,0,0,0,.75c.2,1.53,1.44,9.27,5.53,11.49a5.06,5.06,0,0,0,2.07.61,9.78,9.78,0,0,0,1.77,4.51,67.26,67.26,0,0,1-7.47,6.73h0a61.5,61.5,0,0,1-6.48,4.34C656.55,959.89,654.51,947.87,660.05,936.71Zm30.4,14.78c-4.28,3.46-4.63,6.12-4.91,8.26-.31,2.35-.6,4.57-8.86,9.4-5,2.9-9.23,3.81-12.7,2.71a9.57,9.57,0,0,1-4.61-3.31,67.21,67.21,0,0,0,5.94-3.88c4.05,3.48,9.27,2.25,11.68,1a2,2,0,0,0-1.9-3.53,6.2,6.2,0,0,1-6.47,0,73.56,73.56,0,0,0,6.53-6.13c5.79,1.41,12.13-4.53,12.89-5.26a2,2,0,0,0-2.78-2.87,19.06,19.06,0,0,1-6.53,4.06,88.87,88.87,0,0,0,6.16-8.52c2.42.23,7.14-.28,11.82-6.14a2,2,0,1,0-3.12-2.5c-2.36,3-4.57,4.09-6.22,4.49a134.77,134.77,0,0,0,12.89-32.91C708.47,931.88,697.9,945.48,690.45,951.49Z" style="fill:#2f292c"/><path d="M690.45,951.49c-4.28,3.46-4.63,6.12-4.91,8.26-.31,2.35-.6,4.57-8.86,9.4-5,2.9-9.23,3.81-12.7,2.71a9.57,9.57,0,0,1-4.61-3.31,67.21,67.21,0,0,0,5.94-3.88c4.05,3.48,9.27,2.25,11.68,1a2,2,0,0,0-1.9-3.53,6.2,6.2,0,0,1-6.47,0,73.56,73.56,0,0,0,6.53-6.13c5.79,1.41,12.13-4.53,12.89-5.26a2,2,0,0,0-2.78-2.87,19.06,19.06,0,0,1-6.53,4.06,88.87,88.87,0,0,0,6.16-8.52c2.42.23,7.14-.28,11.82-6.14a2,2,0,1,0-3.12-2.5c-2.36,3-4.57,4.09-6.22,4.49a134.77,134.77,0,0,0,12.89-32.91C708.47,931.88,697.9,945.48,690.45,951.49Z" style="fill:#b11030"/><path d="M694.37,912.35a123,123,0,0,1-10.77,25.39c-.84-3,1-8.9,2.28-11.76a2,2,0,0,0-3.66-1.63,39.59,39.59,0,0,0-2.09,6.12c-.94,3.82-1.34,8.47,1.11,11.15a81.16,81.16,0,0,1-6.76,9.13c-1.12-2.44-.58-7.89.45-11.75a.06.06,0,0,1,0,0,2,2,0,0,0-3.87-1c-.1.36-.2.72-.28,1.07a34.36,34.36,0,0,0-1,6.09c-1.7-.94-3.08-5.63-3.47-8.52a2,2,0,0,0-3.92-.21,1.88,1.88,0,0,0,0,.75c.2,1.53,1.44,9.27,5.53,11.49a5.06,5.06,0,0,0,2.07.61,9.78,9.78,0,0,0,1.77,4.51,67.26,67.26,0,0,1-7.47,6.73h0a61.5,61.5,0,0,1-6.48,4.34c-1.23-4.94-3.27-17,2.27-28.12,4.54-9.15,13.2-15.81,25.73-19.8A25.25,25.25,0,0,0,694.37,912.35Z" style="fill:#b11030"/><path d="M324.43,893.81h0a1.9,1.9,0,0,0,.35,0h.07a1.47,1.47,0,0,0,.28-.08l.13-.05a1.63,1.63,0,0,0,.19-.09l.15-.09.13-.11.15-.13.11-.12c0-.05.07-.07.1-.13a2,2,0,0,0-.34-2.69l0,0-.09-.08c-.64-.46-1.24-.92-1.87-1.39-2.5-2.2-6.75-7.34-5.88-16.42,1.35-14.21-1.69-25.79-9.06-34.41a39,39,0,0,0-6.11-5.74,48.9,48.9,0,0,0-22.3-8.89c-1.52-26.19,14.61-44.82,14.78-45a2,2,0,0,0-.18-2.83l-.12-.09a2,2,0,0,0-2.69.27c-.74.83-17.39,20-15.79,47.73a13.62,13.62,0,0,0-7.48,4.32c-3.18,3.64-4.36,9-3.48,15.91,1.34,10.59,3.9,12.88,7.1,14.78,1.57.92,2.79,1.64,3.87,5.4C279.55,874.8,289.93,893.31,324.43,893.81Zm-18.62-53.26c6.64,7.77,9.37,18.35,8.12,31.44a25.21,25.21,0,0,0,.82,9.69,122.86,122.86,0,0,1-19.12-19.87c3.09.41,7.79,4.41,9.92,6.71a2,2,0,0,0,2.93-2.73,39.89,39.89,0,0,0-4.81-4.32c-3.14-2.36-7.26-4.55-10.69-3.35a80.32,80.32,0,0,1-5.74-9.8c2.68-.08,7.48,2.56,10.63,5,0,0,0,0,0,0a2,2,0,0,0,2.44-3.17c-.29-.23-.58-.47-.87-.68a35.14,35.14,0,0,0-5.22-3.3c1.53-1.19,6.39-.62,9.2.15a2,2,0,0,0,1.73-3.52,1.83,1.83,0,0,0-.67-.33c-1.49-.42-9.09-2.31-12.74.58a4.87,4.87,0,0,0-1.37,1.66,9.84,9.84,0,0,0-4.85-.14,67.21,67.21,0,0,1-3.26-9.51h0a59.54,59.54,0,0,1-1.45-7.67C285.86,828.24,297.72,831.08,305.81,840.55Zm-25.52,22.17c-1.5-5.3-3.81-6.66-5.67-7.76-2-1.21-4-2.34-5.17-11.84-.72-5.7.12-10,2.49-12.74a9.5,9.5,0,0,1,4.85-2.94,69.4,69.4,0,0,0,1.24,7c-4.79,2.36-5.71,7.65-5.46,10.37a2,2,0,0,0,4-.36,6.22,6.22,0,0,1,2.53-6,72.29,72.29,0,0,0,3.07,8.42c-3.57,4.77-.59,12.93-.22,13.92a2,2,0,0,0,2.59,1.14,2,2,0,0,0,1.14-2.57,19.27,19.27,0,0,1-1.17-7.6,90.27,90.27,0,0,0,5.42,9c-1.16,2.14-2.54,6.68,1,13.29a2,2,0,0,0,3.53-1.89c-1.79-3.33-2-5.81-1.69-7.49A134.35,134.35,0,0,0,318,889.46C291.26,887,282.9,871.93,280.29,862.72Z" style="fill:#2f292c"/><path d="M280.29,862.72c-1.5-5.3-3.81-6.66-5.67-7.76-2-1.21-4-2.34-5.17-11.84-.72-5.7.12-10,2.49-12.74a9.5,9.5,0,0,1,4.85-2.94,69.4,69.4,0,0,0,1.24,7c-4.79,2.36-5.71,7.65-5.46,10.37a2,2,0,0,0,4-.36,6.22,6.22,0,0,1,2.53-6,72.29,72.29,0,0,0,3.07,8.42c-3.57,4.77-.59,12.93-.22,13.92a2,2,0,0,0,2.59,1.14,2,2,0,0,0,1.14-2.57,19.27,19.27,0,0,1-1.17-7.6,90.27,90.27,0,0,0,5.42,9c-1.16,2.14-2.54,6.68,1,13.29a2,2,0,0,0,3.53-1.89c-1.79-3.33-2-5.81-1.69-7.49A134.35,134.35,0,0,0,318,889.46C291.26,887,282.9,871.93,280.29,862.72Z" style="fill:#b11030"/><path d="M314.75,881.68a122.86,122.86,0,0,1-19.12-19.87c3.09.41,7.79,4.41,9.92,6.71a2,2,0,0,0,2.93-2.73,39.89,39.89,0,0,0-4.81-4.32c-3.14-2.36-7.26-4.55-10.69-3.35a80.32,80.32,0,0,1-5.74-9.8c2.68-.08,7.48,2.56,10.63,5,0,0,0,0,0,0a2,2,0,0,0,2.44-3.17c-.29-.23-.58-.47-.87-.68a35.14,35.14,0,0,0-5.22-3.3c1.53-1.19,6.39-.62,9.2.15a2,2,0,0,0,1.73-3.52,1.83,1.83,0,0,0-.67-.33c-1.49-.42-9.09-2.31-12.74.58a4.87,4.87,0,0,0-1.37,1.66,9.84,9.84,0,0,0-4.85-.14,67.21,67.21,0,0,1-3.26-9.51h0a59.54,59.54,0,0,1-1.45-7.67c5,.81,16.88,3.65,25,13.12,6.64,7.77,9.37,18.35,8.12,31.44A25.21,25.21,0,0,0,314.75,881.68Z" style="fill:#b11030"/><path d="M98.26,881.72a.86.86,0,0,0,0-.16c0-.07,0-.13,0-.19a1.09,1.09,0,0,0,0-.17L98.1,881l-.09-.18-.08-.13a1.84,1.84,0,0,0-.17-.22l-.05-.06a1.38,1.38,0,0,0-.26-.22l0,0c-13-9.51-24.22-12.71-33.37-12.71a37.77,37.77,0,0,0-23,7.83c-3.11,2.36-4.53,2.2-6.33,2-3.7-.41-7.12-.12-14.56,7.54-4.86,5-7.14,10-6.79,14.82a13.73,13.73,0,0,0,3.38,7.93C-1.21,928.83.57,954.14.66,955.25a2,2,0,0,0,2,1.84h.16a2,2,0,0,0,1.84-2.15c0-.25-1.71-24.85,15.24-44.85a49,49,0,0,0,23.17,6.29,38.11,38.11,0,0,0,8.34-.9c11.07-2.46,20.46-9.88,27.92-22.06,4.76-7.77,11.25-9.33,14.57-9.58.78,0,1.55,0,2.34,0h.16a2,2,0,0,0,1.88-1.94C98.27,881.83,98.26,881.78,98.26,881.72Zm-22.35,9.6c-6.87,11.22-15.41,18-25.38,20.25-12.17,2.7-23.35-2.15-27.85-4.53a63.93,63.93,0,0,1,5.76-5.26h0a67,67,0,0,1,8.32-5.63,10,10,0,0,0,4,2.8,5,5,0,0,0,.09,2.15c1.18,4.5,8.4,7.56,9.84,8.12a1.87,1.87,0,0,0,.73.15,2,2,0,0,0,.73-3.87c-2.7-1.07-6.93-3.53-7.43-5.41a33.5,33.5,0,0,0,6.14.51l1.12,0a2,2,0,0,0-.05-4h0c-4,.07-9.42-.71-11.52-2.38a82.26,82.26,0,0,1,10.48-4.38c2,3,6.63,3.74,10.57,3.74a38.84,38.84,0,0,0,6.44-.56,2,2,0,0,0-.71-3.94c-3.08.55-9.25.93-12-.6a123,123,0,0,1,27.24-4.38A25.43,25.43,0,0,0,75.91,891.32Zm-21.29-6.88c.79-1.5,2.42-3.38,5.85-5a2,2,0,0,0-1.68-3.64c-6.81,3.15-8.43,7.61-8.79,10a85.68,85.68,0,0,0-9.74,3.93,19,19,0,0,1,5.5-5.36A2,2,0,0,0,43.64,881c-.9.56-8.18,5.3-8.2,11.26a71.58,71.58,0,0,0-7.51,4.87,6.21,6.21,0,0,1,1.56-6.29,2,2,0,0,0-3-2.68c-1.84,2-4.29,6.8-1.88,11.57a67.85,67.85,0,0,0-5.19,4.84,9.55,9.55,0,0,1-2.1-5.28c-.24-3.63,1.66-7.56,5.67-11.68,6.66-6.86,8.88-6.61,11.24-6.35,2.15.24,4.82.54,9.2-2.79,7.62-5.79,23.36-12.79,46.2,1.3A134.65,134.65,0,0,0,54.62,884.44Z" style="fill:#2f292c"/><path d="M61.45,876.82a2,2,0,0,0-2.66-1c-6.81,3.15-8.43,7.61-8.79,10a85.68,85.68,0,0,0-9.74,3.93,19,19,0,0,1,5.5-5.36A2,2,0,0,0,43.64,881c-.9.56-8.18,5.3-8.2,11.26a71.58,71.58,0,0,0-7.51,4.87,6.21,6.21,0,0,1,1.56-6.29,2,2,0,0,0-3-2.68c-1.84,2-4.29,6.8-1.88,11.57a67.85,67.85,0,0,0-5.19,4.84,9.55,9.55,0,0,1-2.1-5.28c-.24-3.63,1.66-7.56,5.67-11.68,6.66-6.86,8.88-6.61,11.24-6.35,2.15.24,4.82.54,9.2-2.79,7.62-5.79,23.36-12.79,46.2,1.3a134.65,134.65,0,0,0-35,4.63c.79-1.5,2.42-3.38,5.85-5A2,2,0,0,0,61.45,876.82Z" style="fill:#b11030"/><path d="M82.4,884.08a25.43,25.43,0,0,0-6.49,7.24c-6.87,11.22-15.41,18-25.38,20.25-12.17,2.7-23.35-2.15-27.85-4.53a63.93,63.93,0,0,1,5.76-5.26h0a67,67,0,0,1,8.32-5.63,10,10,0,0,0,4,2.8,5,5,0,0,0,.09,2.15c1.18,4.5,8.4,7.56,9.84,8.12a1.87,1.87,0,0,0,.73.15,2,2,0,0,0,.73-3.87c-2.7-1.07-6.93-3.53-7.43-5.41a33.5,33.5,0,0,0,6.14.51l1.12,0a2,2,0,0,0-.05-4h0c-4,.07-9.42-.71-11.52-2.38a82.26,82.26,0,0,1,10.48-4.38c2,3,6.63,3.74,10.57,3.74a38.84,38.84,0,0,0,6.44-.56,2,2,0,0,0-.71-3.94c-3.08.55-9.25.93-12-.6A123,123,0,0,1,82.4,884.08Z" style="fill:#b11030"/><path d="M194.85,361.94a.94.94,0,0,0-.06-.15l-.07-.15c0-.06-.07-.11-.1-.16l-.1-.14-.12-.14a1,1,0,0,0-.15-.14l-.11-.09a1.4,1.4,0,0,0-.24-.15l-.06,0a1.75,1.75,0,0,0-.32-.12h0a72.33,72.33,0,0,0-20.17-3.15c-19.56,0-29.75,10.39-34.51,17.78-2.12,3.28-3.51,3.61-5.27,4-3.62.88-6.73,2.31-11.12,12.05-2.86,6.36-3.31,11.82-1.33,16.24a13.63,13.63,0,0,0,5.88,6.31c-9.65,26.07.66,49.25,1.12,50.27a2,2,0,0,0,2.5,1.05l.15-.06a2,2,0,0,0,1-2.65c-.11-.23-10.08-22.78-.95-47.36a48.93,48.93,0,0,0,23.92-2,38.23,38.23,0,0,0,7.53-3.69c9.57-6.09,15.87-16.27,18.74-30.25,1.82-8.94,7.39-12.61,10.43-14l2.2-.79.1,0,0,0A2,2,0,0,0,194.85,361.94Zm-17.8,16.5c-2.64,12.88-8.35,22.19-17,27.67-10.52,6.7-22.69,5.94-27.73,5.24a60.7,60.7,0,0,1,3.63-6.91h0a65.81,65.81,0,0,1,5.9-8.13,9.91,9.91,0,0,0,4.68,1.28,4.8,4.8,0,0,0,.82,2c2.64,3.83,10.47,4.24,12,4.29a2.25,2.25,0,0,0,.74-.12,2,2,0,0,0-.63-3.88c-2.9-.09-7.72-1-8.83-2.55a34.39,34.39,0,0,0,5.95-1.62l1-.4a2,2,0,0,0-1.41-3.74l0,0c-3.73,1.43-9.09,2.54-11.63,1.68a81.52,81.52,0,0,1,8.36-7.69c2.92,2.15,7.5,1.27,11.21-.08a39.16,39.16,0,0,0,5.86-2.72,2,2,0,0,0-2-3.46c-2.71,1.57-8.38,4-11.45,3.51a123.07,123.07,0,0,1,24.1-13.4A25.55,25.55,0,0,0,177.05,378.44Zm-22.37.78c.23-1.68,1.13-4,3.81-6.66a2,2,0,1,0-2.81-2.84c-5.34,5.27-5.34,10-4.86,12.41a88.47,88.47,0,0,0-7.81,7,18.83,18.83,0,0,1,3.34-6.91,2,2,0,0,0-3.15-2.47c-.65.83-5.88,7.77-3.87,13.38a73.93,73.93,0,0,0-5.4,7.14,6.18,6.18,0,0,1-.68-6.44,2,2,0,0,0-1.11-2.6,2,2,0,0,0-2.59,1.09c-1,2.54-1.71,7.85,2.17,11.51a67,67,0,0,0-3.22,6.32,9.53,9.53,0,0,1-3.78-4.24c-1.47-3.33-1-7.67,1.35-12.91,3.93-8.73,6.1-9.25,8.41-9.81,2.09-.5,4.71-1.13,7.69-5.75,5.19-8.05,17.6-20,43.88-14.53A134.87,134.87,0,0,0,154.68,379.22Z" style="fill:#2f292c"/><path d="M158.49,372.56a2,2,0,1,0-2.81-2.84c-5.34,5.27-5.34,10-4.86,12.41a88.47,88.47,0,0,0-7.81,7,18.83,18.83,0,0,1,3.34-6.91,2,2,0,0,0-3.15-2.47c-.65.83-5.88,7.77-3.87,13.38a73.93,73.93,0,0,0-5.4,7.14,6.18,6.18,0,0,1-.68-6.44,2,2,0,0,0-1.11-2.6,2,2,0,0,0-2.59,1.09c-1,2.54-1.71,7.85,2.17,11.51a67,67,0,0,0-3.22,6.32,9.53,9.53,0,0,1-3.78-4.24c-1.47-3.33-1-7.67,1.35-12.91,3.93-8.73,6.1-9.25,8.41-9.81,2.09-.5,4.71-1.13,7.69-5.75,5.19-8.05,17.6-20,43.88-14.53a134.87,134.87,0,0,0-31.37,16.3C154.91,377.54,155.81,375.21,158.49,372.56Z" style="fill:#b11030"/><path d="M180.67,369.41a25.55,25.55,0,0,0-3.62,9c-2.64,12.88-8.35,22.19-17,27.67-10.52,6.7-22.69,5.94-27.73,5.24a60.7,60.7,0,0,1,3.63-6.91h0a65.81,65.81,0,0,1,5.9-8.13,9.91,9.91,0,0,0,4.68,1.28,4.8,4.8,0,0,0,.82,2c2.64,3.83,10.47,4.24,12,4.29a2.25,2.25,0,0,0,.74-.12,2,2,0,0,0-.63-3.88c-2.9-.09-7.72-1-8.83-2.55a34.39,34.39,0,0,0,5.95-1.62l1-.4a2,2,0,0,0-1.41-3.74l0,0c-3.73,1.43-9.09,2.54-11.63,1.68a81.52,81.52,0,0,1,8.36-7.69c2.92,2.15,7.5,1.27,11.21-.08a39.16,39.16,0,0,0,5.86-2.72,2,2,0,0,0-2-3.46c-2.71,1.57-8.38,4-11.45,3.51A123.07,123.07,0,0,1,180.67,369.41Z" style="fill:#b11030"/><path d="M718.74,491.69c0-.06,0-.1-.07-.15a1,1,0,0,0-.07-.15l-.1-.17-.1-.14a1.42,1.42,0,0,0-.12-.13,1.85,1.85,0,0,0-.14-.14l-.12-.09a1,1,0,0,0-.24-.15l-.06,0a1.75,1.75,0,0,0-.32-.12h0c-33.14-9.63-48.48,5-54.68,14.63-2.12,3.27-3.5,3.61-5.26,4-3.62.88-6.74,2.31-11.13,12.05-2.86,6.35-3.31,11.82-1.33,16.24a13.59,13.59,0,0,0,5.89,6.31c-9.65,26.07.65,49.25,1.11,50.27a2,2,0,0,0,2.5,1.05l.15-.06a2,2,0,0,0,1-2.65c-.1-.24-10.08-22.78-1-47.36a49.18,49.18,0,0,0,23.92-2,38.63,38.63,0,0,0,7.54-3.7C695.68,533.15,702,523,704.85,509c1.83-8.93,7.39-12.6,10.43-14,.74-.26,1.45-.53,2.2-.78l.1,0,0,0A2,2,0,0,0,718.74,491.69Zm-17.81,16.49c-2.64,12.89-8.34,22.2-17,27.68-10.52,6.69-22.68,5.94-27.73,5.23a63.11,63.11,0,0,1,3.63-6.9h0a66.86,66.86,0,0,1,5.9-8.13,9.94,9.94,0,0,0,4.68,1.28,4.92,4.92,0,0,0,.82,2c2.64,3.83,10.47,4.24,12,4.28a2,2,0,1,0,.12-4c-2.91-.09-7.73-1-8.84-2.56a33.28,33.28,0,0,0,5.95-1.62l1-.39a2,2,0,0,0-1.4-3.74h0c-3.72,1.43-9.09,2.55-11.63,1.69a82.58,82.58,0,0,1,8.36-7.69c2.93,2.15,7.51,1.26,11.21-.08a39.18,39.18,0,0,0,5.86-2.72,2,2,0,1,0-2-3.46c-2.7,1.56-8.37,4-11.45,3.51a122.87,122.87,0,0,1,24.11-13.4A25.31,25.31,0,0,0,700.93,508.18Zm-22.36.78c.22-1.68,1.12-4,3.81-6.65a2,2,0,0,0-2.82-2.85c-5.33,5.28-5.34,10-4.85,12.41a87.3,87.3,0,0,0-7.82,7,18.75,18.75,0,0,1,3.35-6.91,2,2,0,0,0-3.15-2.47c-.65.83-5.89,7.77-3.88,13.38a72.72,72.72,0,0,0-5.4,7.14,6.22,6.22,0,0,1-.68-6.44,2,2,0,0,0-3.7-1.51c-1,2.53-1.71,7.85,2.18,11.51a64.83,64.83,0,0,0-3.23,6.32,9.59,9.59,0,0,1-3.78-4.24c-1.46-3.33-1-7.68,1.35-12.92,3.93-8.72,6.1-9.24,8.41-9.8,2.1-.5,4.71-1.13,7.69-5.76,5.19-8,17.6-20,43.88-14.52A135,135,0,0,0,678.57,509Z" style="fill:#2f292c"/><path d="M682.38,502.31a2,2,0,0,0-2.82-2.85c-5.33,5.28-5.34,10-4.85,12.41a87.3,87.3,0,0,0-7.82,7,18.75,18.75,0,0,1,3.35-6.91,2,2,0,0,0-3.15-2.47c-.65.83-5.89,7.77-3.88,13.38a72.72,72.72,0,0,0-5.4,7.14,6.22,6.22,0,0,1-.68-6.44,2,2,0,0,0-3.7-1.51c-1,2.53-1.71,7.85,2.18,11.51a64.83,64.83,0,0,0-3.23,6.32,9.59,9.59,0,0,1-3.78-4.24c-1.46-3.33-1-7.68,1.35-12.92,3.93-8.72,6.1-9.24,8.41-9.8,2.1-.5,4.71-1.13,7.69-5.76,5.19-8,17.6-20,43.88-14.52A135,135,0,0,0,678.57,509C678.79,507.28,679.69,505,682.38,502.31Z" style="fill:#b11030"/><path d="M704.56,499.16a25.31,25.31,0,0,0-3.63,9c-2.64,12.89-8.34,22.2-17,27.68-10.52,6.69-22.68,5.94-27.73,5.23a63.11,63.11,0,0,1,3.63-6.9h0a66.86,66.86,0,0,1,5.9-8.13,9.94,9.94,0,0,0,4.68,1.28,4.92,4.92,0,0,0,.82,2c2.64,3.83,10.47,4.24,12,4.28a2,2,0,1,0,.12-4c-2.91-.09-7.73-1-8.84-2.56a33.28,33.28,0,0,0,5.95-1.62l1-.39a2,2,0,0,0-1.4-3.74h0c-3.72,1.43-9.09,2.55-11.63,1.69a82.58,82.58,0,0,1,8.36-7.69c2.93,2.15,7.51,1.26,11.21-.08a39.18,39.18,0,0,0,5.86-2.72,2,2,0,1,0-2-3.46c-2.7,1.56-8.37,4-11.45,3.51A122.87,122.87,0,0,1,704.56,499.16Z" style="fill:#b11030"/><path d="M505.14,256.59c-2.56-2.95-2.5-4.37-2.42-6.18.16-3.72-.35-7.11-8.49-14-5.31-4.51-10.43-6.46-15.23-5.79a13.62,13.62,0,0,0-7.69,3.91c-22.37-16.5-47.51-13-48.61-12.87a2,2,0,0,0-1.7,2.11s0,.1,0,.15a2,2,0,0,0,2.27,1.69c.26,0,24.68-3.36,45.77,12.23a49,49,0,0,0-4.74,23.53,38.7,38.7,0,0,0,1.46,8.26C469,280.48,477,289.36,489.64,296c8.07,4.24,10.06,10.6,10.54,13.9,0,.78.1,1.54.14,2.33,0,0,0,.08,0,.11a.07.07,0,0,0,0,.05,2,2,0,0,0,2.06,1.75l.17,0,.16,0,.19,0,.16-.06.16-.08a1,1,0,0,0,.17-.1l.12-.08a1.29,1.29,0,0,0,.21-.19l.06,0,.21-.27v0c7.81-12.34,10.55-22.83,10.55-31.47A37.77,37.77,0,0,0,505.14,256.59ZM491.5,292.45c-11.65-6.11-19-14.17-21.89-24-3.51-12,.59-23.44,2.66-28.1a61.09,61.09,0,0,1,5.63,5.41,0,0,0,0,1,0,0,66.47,66.47,0,0,1,6.17,7.92,10,10,0,0,0-2.52,4.14,5,5,0,0,0-2.15.24c-4.41,1.48-7,8.88-7.45,10.35a2.38,2.38,0,0,0-.09.74,2,2,0,0,0,3.9.48c.89-2.77,3.07-7.15,4.91-7.78a34,34,0,0,0-.1,6.16l.09,1.11a2,2,0,0,0,4-.31v0c-.34-4,.07-9.44,1.6-11.65a81.69,81.69,0,0,1,5.07,10.17c-2.88,2.21-3.3,6.86-3,10.79a38.31,38.31,0,0,0,1,6.39,2,2,0,0,0,3.88-1c-.76-3-1.54-9.17-.19-12a123.72,123.72,0,0,1,6.18,26.88A25.44,25.44,0,0,0,491.5,292.45Zm12.4,12.95A134.81,134.81,0,0,0,497,270.75c1.55.68,3.53,2.19,5.34,5.5a2,2,0,1,0,3.51-1.91c-3.59-6.59-8.14-7.91-10.57-8.11a89.11,89.11,0,0,0-4.58-9.46,19,19,0,0,1,5.72,5.14,2,2,0,0,0,3.24-2.34c-.62-.86-5.83-7.81-11.78-7.44a74.29,74.29,0,0,0-5.36-7.17,6.22,6.22,0,0,1,6.38,1.14,2,2,0,0,0,2.47-3.14c-2.14-1.7-7.07-3.82-11.66-1.1a67.85,67.85,0,0,0-5.18-4.86,9.56,9.56,0,0,1,5.13-2.45c3.6-.48,7.65,1.16,12,4.88,7.29,6.19,7.19,8.42,7.08,10.8-.09,2.15-.21,4.83,3.4,9C508.41,266.43,516.44,281.67,503.9,305.4Z" style="fill:#2f292c"/><path d="M503.9,305.4A134.81,134.81,0,0,0,497,270.75c1.55.68,3.53,2.19,5.34,5.5a2,2,0,1,0,3.51-1.91c-3.59-6.59-8.14-7.91-10.57-8.11a89.11,89.11,0,0,0-4.58-9.46,19,19,0,0,1,5.72,5.14,2,2,0,0,0,3.24-2.34c-.62-.86-5.83-7.81-11.78-7.44a74.29,74.29,0,0,0-5.36-7.17,6.22,6.22,0,0,1,6.38,1.14,2,2,0,0,0,2.47-3.14c-2.14-1.7-7.07-3.82-11.66-1.1a67.85,67.85,0,0,0-5.18-4.86,9.56,9.56,0,0,1,5.13-2.45c3.6-.48,7.65,1.16,12,4.88,7.29,6.19,7.19,8.42,7.08,10.8-.09,2.15-.21,4.83,3.4,9C508.41,266.43,516.44,281.67,503.9,305.4Z" style="fill:#b11030"/><path d="M499.16,298.44a25.44,25.44,0,0,0-7.66-6c-11.65-6.11-19-14.17-21.89-24-3.51-12,.59-23.44,2.66-28.1a61.09,61.09,0,0,1,5.63,5.41,0,0,0,0,1,0,0,66.47,66.47,0,0,1,6.17,7.92,10,10,0,0,0-2.52,4.14,5,5,0,0,0-2.15.24c-4.41,1.48-7,8.88-7.45,10.35a2.38,2.38,0,0,0-.09.74,2,2,0,0,0,3.9.48c.89-2.77,3.07-7.15,4.91-7.78a34,34,0,0,0-.1,6.16l.09,1.11a2,2,0,0,0,4-.31v0c-.34-4,.07-9.44,1.6-11.65a81.69,81.69,0,0,1,5.07,10.17c-2.88,2.21-3.3,6.86-3,10.79a38.31,38.31,0,0,0,1,6.39,2,2,0,0,0,3.88-1c-.76-3-1.54-9.17-.19-12A123.72,123.72,0,0,1,499.16,298.44Z" style="fill:#b11030"/><path d="M954.68,158.37c-2.22-3.21-2-4.62-1.72-6.41.58-3.67.44-7.1-6.88-14.88-4.78-5.07-9.65-7.58-14.5-7.44a13.59,13.59,0,0,0-8.07,3c-20.4-18.89-45.77-18.23-46.88-18.19a2,2,0,0,0-1.93,1.9v.16a2,2,0,0,0,2.07,1.93c.26,0,24.9-.6,44.13,17.23a49,49,0,0,0-7.32,22.86,38.28,38.28,0,0,0,.53,8.38c2,11.17,9,20.88,20.79,28.87,7.56,5.11,8.82,11.66,8.93,15,0,.78-.07,1.54-.12,2.33v.16a2,2,0,0,0,1.86,2h.33l.19,0,.17,0,.17-.06.18-.08.13-.07a1.88,1.88,0,0,0,.23-.16l.06,0,.24-.25s0,0,0,0h0C968.86,187.55,961.18,167.77,954.68,158.37ZM937.14,192.5c-10.9-7.36-17.32-16.2-19.09-26.26-2.16-12.27,3.19-23.22,5.77-27.62a65.45,65.45,0,0,1,5,6h0a66.83,66.83,0,0,1,5.25,8.56,10.07,10.07,0,0,0-3,3.83,5,5,0,0,0-2.16,0c-4.55,1-7.92,8-8.55,9.46a2.1,2.1,0,0,0-.17.73,2,2,0,0,0,3.82.91c1.19-2.66,3.84-6.77,5.74-7.19A34.24,34.24,0,0,0,929,167c0,.37,0,.74,0,1.12a2,2,0,0,0,4,.13v0c.11-4,1.13-9.37,2.89-11.39a79.6,79.6,0,0,1,3.91,10.67c-3.1,1.88-4,6.45-4.21,10.38a38.33,38.33,0,0,0,.28,6.46,2,2,0,1,0,4-.53c-.41-3.1-.51-9.28,1.14-11.93a123.45,123.45,0,0,1,3.16,27.4A25.49,25.49,0,0,0,937.14,192.5Zm7.83-21c1.46.85,3.27,2.57,4.69,6.06a2,2,0,0,0,3.71-1.51c-2.84-7-7.22-8.77-9.61-9.23a88.91,88.91,0,0,0-3.5-9.91,18.76,18.76,0,0,1,5.11,5.74,2,2,0,0,0,3.48-2c-.52-.92-4.93-8.41-10.88-8.69a71.8,71.8,0,0,0-4.53-7.73,6.22,6.22,0,0,1,6.21,1.84,2,2,0,0,0,2.81-2.84c-1.94-1.93-6.6-4.59-11.47-2.39a64.5,64.5,0,0,0-4.6-5.4,9.51,9.51,0,0,1,5.36-1.87c3.64-.08,7.48,2,11.42,6.18,6.56,7,6.21,9.17,5.84,11.52-.34,2.13-.76,4.78,2.38,9.31,5.44,7.87,11.74,23.9-3.36,46.1A134.93,134.93,0,0,0,945,171.54Z" style="fill:#2f292c"/><path d="M948,206.75A134.93,134.93,0,0,0,945,171.54c1.46.85,3.27,2.57,4.69,6.06a2,2,0,0,0,3.71-1.51c-2.84-7-7.22-8.77-9.61-9.23a88.91,88.91,0,0,0-3.5-9.91,18.76,18.76,0,0,1,5.11,5.74,2,2,0,0,0,3.48-2c-.52-.92-4.93-8.41-10.88-8.69a71.8,71.8,0,0,0-4.53-7.73,6.22,6.22,0,0,1,6.21,1.84,2,2,0,0,0,2.81-2.84c-1.94-1.93-6.6-4.59-11.47-2.39a64.5,64.5,0,0,0-4.6-5.4,9.51,9.51,0,0,1,5.36-1.87c3.64-.08,7.48,2,11.42,6.18,6.56,7,6.21,9.17,5.84,11.52-.34,2.13-.76,4.78,2.38,9.31C956.83,168.52,963.13,184.55,948,206.75Z" style="fill:#b11030"/><path d="M944.09,199.3a25.49,25.49,0,0,0-7-6.8c-10.9-7.36-17.32-16.2-19.09-26.26-2.16-12.27,3.19-23.22,5.77-27.62a65.45,65.45,0,0,1,5,6h0a66.83,66.83,0,0,1,5.25,8.56,10.07,10.07,0,0,0-3,3.83,5,5,0,0,0-2.16,0c-4.55,1-7.92,8-8.55,9.46a2.1,2.1,0,0,0-.17.73,2,2,0,0,0,3.82.91c1.19-2.66,3.84-6.77,5.74-7.19A34.24,34.24,0,0,0,929,167c0,.37,0,.74,0,1.12a2,2,0,0,0,4,.13v0c.11-4,1.13-9.37,2.89-11.39a79.6,79.6,0,0,1,3.91,10.67c-3.1,1.88-4,6.45-4.21,10.38a38.33,38.33,0,0,0,.28,6.46,2,2,0,1,0,4-.53c-.41-3.1-.51-9.28,1.14-11.93A123.45,123.45,0,0,1,944.09,199.3Z" style="fill:#b11030"/></pattern></defs><g id="Ebene_2" data-name="Ebene 2"><g id="Ebene_3" data-name="Ebene 3"><rect width="1000" height="1000" style="fill:url(#TYPO3demo_pattern_quadratisch)"/></g></g></svg>