<svg xmlns="http://www.w3.org/2000/svg" width="16" height="16" viewBox="0 0 16 16">
  <g transform="translate(0.77 1.066)">
    <path d="M4.333,6H5A1.333,1.333,0,0,0,6.333,4.667.667.667,0,0,1,7,4h4a.667.667,0,0,1,.667.667A1.333,1.333,0,0,0,13,6h.667A1.333,1.333,0,0,1,15,7.333v6a1.333,1.333,0,0,1-1.333,1.333H4.333A1.333,1.333,0,0,1,3,13.332v-6A1.333,1.333,0,0,1,4.333,6" transform="translate(-1.77 -2.067)" fill="none" stroke="#828282" stroke-linecap="round" stroke-linejoin="round" stroke-width="1"/>
    <g id="Ellipse_22" transform="translate(4.379 5.233)" fill="none" stroke="#828282" stroke-width="1">
      <circle cx="2.845" cy="2.845" r="2.845" stroke="none"/>
      <circle cx="2.845" cy="2.845" r="2.345" fill="none"/>
    </g>
  </g>
</svg>
