<?xml version="1.0" encoding="utf-8"?>
<svg version="1.1" xmlns="http://www.w3.org/2000/svg" xmlns:xlink="http://www.w3.org/1999/xlink" x="0px" y="0px"
	 viewBox="0 0 598.2 553.2" style="enable-background:new 0 0 598.2 553.2;" xml:space="preserve">
<style type="text/css">
	.st0{fill:#FFFFFF;}
	.st1{display:none;}
	.st2{display:inline;opacity:0.1;fill:#E828E3;enable-background:new    ;}
	.st3{display:inline;}
	.st4{font-family:'SourceSansPro-Semibold';}
	.st5{font-size:24px;}
</style>
<g id="logo_art">
	<path class="st0" d="M596.4,309.9l-31.9-98.1c0,0,0,0.1,0,0.1c0-0.1,0-0.1,0-0.2c0,0,0,0,0,0c0,0,0,0,0,0L501.3,17.1
		c-3.5-10.3-13-17.1-23.9-17.1c-10.9,0.1-20.2,6.8-23.6,17.2l-60,184.8H204.5L144.3,17.2C141,6.8,131.7,0.1,120.8,0c0,0-0.1,0-0.1,0
		c-10.8,0-20.3,6.8-23.8,17.2L33.8,211.7l0,0c0,0,0,0,0,0c0,0,0,0.1,0,0.1c0,0,0-0.1,0-0.1l-32,98.1c-4.8,14.8,0.4,30.9,13,40.1
		l276,200.6c0,0,0.1,0,0.1,0.1c0.1,0.1,0.2,0.2,0.4,0.3c-0.1-0.1-0.2-0.2-0.3-0.2c0,0,0,0,0,0c0,0,0,0,0.1,0c0,0,0,0,0,0
		c0,0,0,0,0,0c0.4,0.3,0.9,0.6,1.3,0.8c0.1,0,0.1,0.1,0.2,0.1c0,0,0,0,0,0c0,0,0.1,0,0.1,0.1c0,0,0.1,0,0.1,0c0,0,0,0,0.1,0
		c0.1,0,0.1,0,0.2,0.1c0.2,0.1,0.5,0.2,0.7,0.3c0.2,0.1,0.5,0.2,0.7,0.3c0,0,0,0,0,0c0,0,0.1,0,0.1,0c0,0,0.1,0,0.1,0.1
		c0,0,0,0,0.1,0c0.1,0,0.1,0,0.2,0c0,0,0,0,0.1,0c0.3,0.1,0.7,0.2,1,0.2c0.1,0,0.3,0.1,0.4,0.1c0,0,0,0,0.1,0c0,0,0.1,0,0.1,0
		c0.1,0,0.1,0,0.2,0c0.1,0,0.1,0,0.2,0c0,0,0,0,0,0c0,0,0,0,0,0c0.7,0.1,1.3,0.2,2,0.2c0,0,0,0,0,0l0,0c0,0,0,0,0,0h0c0,0,0,0,0,0
		c0.7,0,1.3-0.1,2-0.2c0,0,0,0,0,0c0,0,0,0,0,0c0.1,0,0.1,0,0.2,0c0.1,0,0.1,0,0.2,0c0,0,0.1,0,0.1,0c0,0,0,0,0.1,0
		c0.1,0,0.3-0.1,0.4-0.1c0.3-0.1,0.7-0.1,1-0.2c0,0,0,0,0.1,0c0.1,0,0.1,0,0.2,0c0,0,0,0,0.1,0c0.1,0,0.1,0,0.1-0.1c0,0,0.1,0,0.1,0
		c0,0,0,0,0,0c0.3-0.1,0.5-0.2,0.7-0.3c0.2-0.1,0.5-0.2,0.7-0.3c0.1,0,0.1,0,0.2-0.1c0,0,0,0,0.1,0c0,0,0.1,0,0.1,0
		c0,0,0.1,0,0.1-0.1c0,0,0,0,0,0c0.1,0,0.1-0.1,0.2-0.1c0.5-0.2,0.9-0.5,1.3-0.8c0,0,0.1,0,0.1-0.1c0,0,0,0,0,0c0,0,0.1,0,0.1-0.1
		l276.1-200.6C596,340.8,601.2,324.7,596.4,309.9z M477.6,35.3L531.8,202H423.5L477.6,35.3z M522.3,230.2l-22.1,28.3l-163,208.8
		l77.1-237.1L522.3,230.2L522.3,230.2z M285.7,543.4L285.7,543.4c0,0,0,0.1,0.1,0.1C285.7,543.5,285.7,543.5,285.7,543.4z
		 M261,467.3L76,230.2l0,0h108L261,467.3z M120.6,35.3L174.8,202H66.5L120.6,35.3z M31.3,327.1c-2.7-1.9-3.8-5.4-2.8-8.5l23.8-72.9
		l174.1,223.2L31.3,327.1z M290.3,550.1c-0.1,0-0.1-0.1-0.2-0.1c0,0,0,0,0,0c-0.1-0.1-0.2-0.2-0.3-0.3c-0.2-0.2-0.4-0.4-0.6-0.5
		c0,0,0,0,0,0c0,0,0,0,0.1,0.1c0.4,0.4,0.8,0.8,1.3,1.1c0,0,0,0,0,0c0,0,0,0,0.1,0.1C290.6,550.3,290.4,550.2,290.3,550.1z
		 M299.1,493.5l-45.3-139.5l-40.2-123.8h171.1L299.1,493.5z M308.4,549.7c-0.1,0.1-0.2,0.2-0.3,0.3c0,0,0,0,0,0
		c-0.1,0-0.1,0.1-0.2,0.1c-0.1,0.1-0.2,0.2-0.4,0.3c0,0,0,0,0.1-0.1c0,0,0,0,0,0c0.4-0.3,0.9-0.7,1.3-1.1c0,0,0,0,0.1,0
		c0,0,0,0,0.1-0.1C308.8,549.3,308.6,549.5,308.4,549.7z M566.9,327.1L371.8,468.9L546,245.7l23.7,72.9
		C570.7,321.7,569.5,325.2,566.9,327.1z"/>
</g>
<g id="spacing_guides" xmlns:sketch="http://www.bohemiancoding.com/sketch/ns" class="st1">
	<path id="path40_63_" sketch:type="MSShapeGroup" class="st2" d="M0.8-5.3v124h586v-124H0.8L0.8-5.3z"/>
	<path id="path40_36_" sketch:type="MSShapeGroup" class="st2" d="M0.8,429.7v124h586v-124H0.8L0.8,429.7z"/>
	<path id="path40_25_" sketch:type="MSShapeGroup" class="st2" d="M463,554.2h124v-560H463V554.2L463,554.2z"/>
	<g class="st3">
		<text transform="matrix(1 0 0 1 512.1258 277.4985)" class="st4 st5">1x</text>
	</g>
	<g class="st3">
		<text transform="matrix(1 0 0 1 282.1258 495.1644)" class="st4 st5">1x</text>
	</g>
	<g class="st3">
		<text transform="matrix(1 0 0 1 282.1258 60.1646)" class="st4 st5">1x</text>
	</g>
	<path id="path40_24_" sketch:type="MSShapeGroup" class="st2" d="M0.8,554.2h124v-560H0.8V554.2L0.8,554.2z"/>
	<g class="st3">
		<text transform="matrix(1 0 0 1 52.1258 277.4985)" class="st4 st5">1x</text>
	</g>
</g>
</svg>
