<svg xmlns="http://www.w3.org/2000/svg" width="40" height="40" viewBox="0 0 40 40"><path class="b" d="M50.667,34.444C65.778,34.444,74,22,74,11.111V10a18.064,18.064,0,0,0,4-4.222,18.447,18.447,0,0,1-4.667,1.333,8.646,8.646,0,0,0,3.556-4.444,20.383,20.383,0,0,1-5.111,2,7.936,7.936,0,0,0-6-2.667,8.349,8.349,0,0,0-8.222,8.222A4.332,4.332,0,0,0,57.778,12,22.975,22.975,0,0,1,40.889,3.333a8.51,8.51,0,0,0-1.111,4.222,8.829,8.829,0,0,0,3.556,6.889,7.491,7.491,0,0,1-3.778-1.111h0a8.121,8.121,0,0,0,6.667,8A6.851,6.851,0,0,1,44,21.556a3.782,3.782,0,0,1-1.556-.222,8.419,8.419,0,0,0,7.778,5.778A16.778,16.778,0,0,1,40,30.667a6.152,6.152,0,0,1-2-.222,20.975,20.975,0,0,0,12.667,4" transform="translate(-38)"/></svg>
