<svg xmlns="http://www.w3.org/2000/svg" viewBox="0 0 144.019 40.001"><path d="M153.274,66.641V92.867h-3.655V66.641h-6.474V63.447h16.6v3.194ZM172.89,79.206V92.867H169.1V79.206l-7.52-15.759h4.032l5.545,11.89,5.549-11.89h3.827Zm18.994,2.565h-3.53v11.1H184.7V63.447s3.618-.3,7.107-.3c6.386,0,8.236,3.952,8.236,9.122,0,6.387-2.188,9.5-8.155,9.5m.418-15.592a28.715,28.715,0,0,0-3.949.252V78.7H192.3c2.355,0,4-1.553,4-6.134,0-4.2-1.013-6.387-4-6.387m20.934,26.98c-6.933,0-8.783-5.042-8.783-15.337,0-9.879,1.85-14.672,8.783-14.672s8.781,4.792,8.781,14.672c0,10.294-1.849,15.337-8.781,15.337m0-26.941c-3.779,0-5.043,2.566-5.043,11.813,0,9.032,1.263,12.063,5.043,12.063s5.043-3.031,5.043-12.063c0-9.247-1.263-11.813-5.043-11.813m19.331,26.941a32.042,32.042,0,0,1-5.506-.718V89.378a32.827,32.827,0,0,0,5.467.641c2.139,0,3.53-1.816,3.53-5.056,0-3.82-.627-5.839-3.612-5.839H229V76.053h3.024c3.41,0,3.571-3.488,3.571-5.167,0-3.322-1.046-4.668-3.146-4.668a26.748,26.748,0,0,0-5.17.716V63.866a25.992,25.992,0,0,1,5.083-.716c4.327,0,6.811,1.85,6.811,8.114,0,2.858-1.013,5.375-3.241,6.179,2.565.169,3.74,2.983,3.74,7.1,0,6.264-2.436,8.613-7.1,8.613" transform="translate(-95.65 -53.157)"/><path class="a" d="M73.081,70.372a5.492,5.492,0,0,1-1.686.24c-5.081,0-12.541-17.754-12.541-23.663,0-2.175.515-2.9,1.242-3.524-6.218.726-13.679,3.008-16.065,5.909a5.8,5.8,0,0,0-.829,3.318c0,9.224,9.845,30.156,16.791,30.156,3.213,0,8.631-5.282,13.087-12.435" transform="translate(-43.203 -42.806)"/><path class="a" d="M95.132,42.122c6.425,0,12.855,1.036,12.855,4.663,0,7.357-4.667,16.275-7.049,16.275-4.249,0-9.535-11.817-9.535-17.726,0-2.695,1.036-3.211,3.729-3.211" transform="translate(-68.497 -42.122)"/></svg>
