<svg xmlns="http://www.w3.org/2000/svg" viewBox="0 0 40 40"><defs><style>.cls-1{fill:#ff7254;}.cls-2{fill:none;}.cls-3{fill:#ffffff;}</style></defs><g><g ><rect class="cls-1" x="-1.97" y="-1.55" width="44.35" height="44.35"/><rect class="cls-2" width="40" height="40"/><path class="cls-3" d="M30.61,10.7c-3.21-1.31-6.86-.46-9.89,1.89.07-.25.14-.5.22-.75.4-1.23.82-2.44,1.28-3.64s1-2.4,1.46-3.53l-2.83-1c-.32,1.33-.57,2.61-.8,3.91s-.42,2.61-.57,3.92c-.05.38-.08.76-.12,1.13-3-2.4-6.74-3.27-10-2C4,12.9,2,20.27,4.78,27.17s9.46,10.72,14.83,8.52c.14,0,.26-.13.39-.19s.25.14.39.19c5.37,2.2,12-1.62,14.83-8.52S36,12.9,30.61,10.7ZM32.44,26a12.59,12.59,0,0,1-5.18,6.2,6.48,6.48,0,0,1-5.74.67,2.44,2.44,0,0,1-1.3-2.22l.22-11.55A5.35,5.35,0,0,1,22.56,15c2.31-1.79,4.83-2.33,6.92-1.48C33.24,15,34.6,20.77,32.44,26Z"/><path class="cls-3" d="M22.93,29.75a1.73,1.73,0,0,0,1.77.41,1.59,1.59,0,0,0,.83-1.62c-.13-1.94-3.16-3.26-3.13-3.33S21.51,28.63,22.93,29.75Z"/><path class="cls-3" d="M22.93,18.17a1.77,1.77,0,0,1,1.77-.41,1.59,1.59,0,0,1,.83,1.62c-.13,1.95-3.16,3.26-3.13,3.34S21.51,19.3,22.93,18.17Z"/><path class="cls-3" d="M26.67,22.53A1.72,1.72,0,0,1,27.79,24a1.61,1.61,0,0,1-1.12,1.43c-1.81.7-4.29-1.49-4.34-1.43S25.05,21.72,26.67,22.53Z"/></g></g></svg>
